<svg width="636" height="209" viewBox="0 0 636 209" fill="none" xmlns="http://www.w3.org/2000/svg">
<path d="M77.687 191.962C75.799 194.673 74.8375 197.594 73.9854 200.603C82.2114 202.795 90.8556 203.964 99.7716 203.964C106.823 203.964 113.704 203.234 120.343 201.845C132.179 199.368 140.112 193.539 149.999 187.279L152.736 181.229L146.481 155.275L123.029 153.519C123.029 153.519 123.164 154.676 122.638 155.08C122.405 155.259 120.369 156.091 120.369 156.091C113.97 158.649 106.987 160.056 99.6738 160.056C99.1286 160.056 98.5852 160.046 98.0439 160.031C96.8224 166.308 93.2713 172.013 89.6087 177.717C86.0908 183.181 81.4003 186.498 77.687 191.962Z" fill="url(#paint0_linear_1220_13228)"/>
<path d="M0 104.342C0 150.457 31.3816 189.254 73.9854 200.604C74.8375 197.596 75.799 194.673 77.687 191.963C81.4003 186.498 86.0909 183.181 89.6088 177.717C93.2713 172.013 96.8224 166.309 98.0439 160.031C70.5886 159.242 48.1171 138.617 44.4897 112.007C28.7022 110.963 14.2983 104.201 0.306841 96.4854C0.103584 99.0769 0 101.698 0 104.342Z" fill="#6530F7"/>
<path d="M56.7751 20.2338C58.0122 17.6871 59.2962 15.1795 60.6018 12.6914C27.2599 26.9156 3.25411 58.7479 0.304932 96.4852C14.2964 104.201 28.7022 110.963 44.4878 112.007C44.1497 109.533 43.9719 107.008 43.9719 104.439C43.9719 87.8676 51.2324 72.9916 62.7477 62.803C56.6422 49.2189 49.6103 34.8678 56.7731 20.2338H56.7751Z" fill="url(#paint1_linear_1220_13228)"/>
<path d="M125.925 55.3777C121.887 42.9489 116.921 30.6137 119.12 17.1115C119.673 13.6184 120.617 10.3126 121.878 7.17467C114.768 5.56861 107.368 4.71973 99.7716 4.71973C92.1749 4.71973 84.9222 5.55105 77.8746 7.12588C71.8962 8.46263 66.1209 10.336 60.6017 12.6914C59.2943 15.1796 58.0102 17.6872 56.775 20.2338C49.6142 34.8679 56.6441 49.2189 62.7496 62.803C72.5782 54.1054 85.5065 48.8228 99.6739 48.8228C109.166 48.8228 118.104 51.1977 125.925 55.3777Z" fill="url(#paint2_linear_1220_13228)"/>
<path d="M199.543 104.342C199.543 56.9078 166.342 17.219 121.878 7.1748C120.617 10.3108 119.675 13.6185 119.12 17.1116C116.923 30.6138 121.889 42.949 125.925 55.3779C143.45 64.7468 155.374 83.2018 155.374 104.44C155.374 104.44 154.885 112.148 160.553 118.588C166.854 125.746 181.66 132.053 193.778 119.563C199.682 113.479 199.543 104.342 199.543 104.342Z" fill="#6530F7"/>
<path d="M120.097 201.915C120.097 201.915 138.078 199.573 153.517 187.864C172.383 173.558 174.625 148.054 154.885 128.735C120.441 95.0233 79.2505 52.6277 79.2505 52.6277C79.2505 52.6277 67.3326 41.5903 65.1789 32.7228C60.4883 13.4034 80.4231 6.57324 80.4231 6.57324C80.4231 6.57324 62.4427 9.69558 46.4167 20.2335C30.5158 30.6894 20.1302 56.238 47.7848 83.8511C75.4394 111.464 120.488 155.665 120.488 155.665C120.488 155.665 133.416 168.186 135.341 177.912C138.664 194.694 120.097 201.915 120.097 201.915Z" fill="#6530F7"/>
<path d="M425.222 44.6448C425.037 41.9925 424.671 38.6962 423.172 35.5839C421.658 32.4716 419.012 29.5587 415.542 27.7801C412.07 26.0017 407.789 25.3578 402.925 25.2658C398.079 25.1585 392.65 25.5877 389.057 25.925C385.462 26.2624 383.72 26.523 382.42 26.9523C381.12 27.3816 380.294 28.0102 379.713 29.0834C379.132 30.1719 378.811 31.705 379.3 33.1002C379.79 34.4954 381.074 35.7219 382.435 36.1512C383.781 36.5805 385.188 36.2278 388.124 35.7986C391.06 35.3846 395.51 34.9093 400.066 34.8787C404.623 34.8634 409.272 35.2926 412.086 37.2551C414.9 39.2175 415.848 42.7131 415.848 53.905C400.433 53.5831 394.531 54.3804 390.004 55.7909C385.279 57.2627 382.053 59.3938 380.034 62.0615C378.016 64.7292 377.205 67.9487 376.945 71.8429C376.685 75.7372 376.976 80.3059 378.031 83.8016C379.101 87.2971 380.936 89.6888 383.811 91.6819C386.687 93.6751 390.586 95.2389 395.892 95.3002C401.045 95.3616 407.513 93.997 415.862 88.769C415.862 89.2749 415.862 89.7809 415.862 90.2868C415.862 92.9391 418.004 95.0856 420.649 95.0856C423.295 95.0856 425.435 92.9391 425.435 90.2868C425.435 78.4202 425.435 66.5536 425.435 54.6871C425.389 49.3363 425.389 47.3125 425.222 44.6448ZM415.817 77.393C405.725 83.6789 402.085 84.7828 398.934 85.2274C395.647 85.6874 392.895 85.4267 390.891 84.6141C388.904 83.8016 387.681 82.437 387.084 80.1987C386.472 77.9755 386.472 74.8786 386.609 72.4715C386.747 70.0645 387.023 68.3168 388.797 66.9369C390.57 65.557 393.843 64.5298 397.834 64.0086C401.626 63.518 406.045 63.4873 415.832 63.5947C415.817 68.1941 415.817 72.7935 415.817 77.393Z" fill="#6530F7"/>
<path d="M440.563 187.886C439.203 187.871 437.658 188.346 433.774 188.898C429.889 189.45 423.667 190.093 418.467 189.94C413.283 189.787 409.139 188.821 406.402 186.537C403.68 184.252 402.365 180.664 401.722 177.736C401.066 174.809 401.066 172.555 401.066 167.848C415.837 167.848 430.624 167.848 445.396 167.848C445.396 161.607 445.396 157.039 444.891 152.762C444.387 148.483 443.361 144.498 440.9 140.696C438.453 136.893 434.554 133.29 429.171 131.374C423.788 129.458 416.908 129.212 411.203 130.423C405.5 131.634 400.974 134.287 397.854 137.936C394.734 141.585 393.037 146.245 392.181 149.68C391.324 153.114 391.324 155.307 391.324 158.679C391.324 162.052 391.324 166.606 391.324 170.04C391.324 173.474 391.324 175.805 392.104 179.285C392.885 182.765 394.428 187.38 397.411 191.013C400.408 194.632 404.842 197.253 409.736 198.542C414.629 199.829 419.981 199.783 425.256 199.492C430.532 199.201 435.761 198.649 438.913 198.035C442.077 197.438 443.194 196.778 443.958 195.95C444.738 195.123 445.181 194.126 445.167 192.93C445.167 191.734 444.723 190.324 443.898 189.358C443.133 188.422 441.925 187.917 440.563 187.886ZM410.531 140.664C415.5 138.78 421.296 138.794 426.22 140.603C431.144 142.413 435.212 146.031 435.548 157.958C424.003 157.958 412.473 157.958 400.928 157.958C401.448 146.337 405.576 142.55 410.531 140.664Z" fill="#6530F7"/>
<path d="M323.288 27.6728C322.585 26.2317 321.178 25.0358 319.16 25.0971C317.141 25.1431 314.496 26.4463 314.159 30.2331C306.743 24.7751 298.592 24.5298 292.155 25.5417C285.732 26.5536 281.007 28.838 277.689 32.1189C274.37 35.3998 272.428 39.6927 271.373 43.1423C270.318 46.5766 270.15 49.1675 270.058 53.6291C269.966 58.0905 269.966 64.4071 270.181 68.8532C270.379 73.2994 270.792 75.8904 272.153 79.34C273.514 82.7896 275.838 87.1131 280.885 90.5627C285.809 93.9203 293.317 96.4194 314.358 93.951C314.358 97.6458 314.358 98.7651 314.358 99.7769C314.358 101.31 314.358 102.613 313.838 103.978C313.318 105.342 312.294 106.783 310.336 107.734C308.379 108.685 305.489 109.175 302.324 109.482C299.143 109.804 295.687 109.957 292.216 109.543C288.745 109.129 285.258 108.163 283.27 107.167C281.282 106.17 280.778 105.143 280.227 104.07C279.677 102.997 279.096 101.893 278.148 101.325C277.199 100.758 275.884 100.743 274.661 101.111C273.438 101.479 272.276 102.245 271.633 103.319C270.991 104.392 270.838 105.772 271.48 107.642C272.123 109.512 273.56 111.888 276.022 113.82C278.499 115.752 282.016 117.255 286.283 118.144C290.549 119.034 295.58 119.325 300.259 119.125C304.954 118.926 309.312 118.221 313.135 116.78C316.958 115.339 320.23 113.146 321.958 109.482C323.671 105.818 323.839 100.697 323.915 96.9866C323.992 93.2764 323.992 90.9767 323.992 81.9464C323.992 72.9161 323.992 57.1707 323.992 47.8031C323.992 38.4355 323.992 35.4458 323.992 33.1001C323.992 30.7851 323.992 29.1139 323.288 27.6728ZM314.358 84.0161C292.43 87.1437 287.062 83.9855 284.035 80.4285C280.946 76.8103 280.288 72.8088 279.952 68.1634C279.616 63.5179 279.616 58.2132 279.616 54.549C279.616 50.8847 279.616 48.8303 280.441 46.2699C281.267 43.7095 282.918 40.6433 285.166 38.5889C287.43 36.5345 290.289 35.5072 293.745 35.0013C297.201 34.4799 301.253 34.4799 304.48 35.6605C307.706 36.841 310.122 39.1867 311.636 41.5785C313.15 43.9702 313.762 46.3926 314.068 48.5236C314.373 50.6394 314.373 52.4485 314.373 64.0545C314.358 69.3593 314.358 76.6876 314.358 84.0161Z" fill="#6530F7"/>
<path d="M347.353 29.3763C354.831 25.8041 359.571 25.4055 362.507 25.1908C365.627 24.9609 366.667 24.9609 367.691 25.3594C368.716 25.7581 369.71 26.5553 370.291 27.7052C370.887 28.8551 371.056 30.3575 370.536 31.6761C370.016 32.9945 368.777 34.1137 367.34 34.543C365.902 34.9723 364.281 34.727 360.932 35.141C357.905 35.5242 353.485 36.4441 347.369 40.5223C347.369 57.0344 347.369 73.5618 347.369 90.0738C347.369 92.7416 345.213 94.9032 342.552 94.9032C339.891 94.9032 337.735 92.7416 337.735 90.0738C337.735 70.0202 337.735 49.9513 337.735 29.8976C337.735 27.3219 339.738 25.2061 342.307 25.0681C344.861 24.9149 347.078 26.8313 347.353 29.3763Z" fill="#6530F7"/>
<path d="M480.611 28.5783C482.293 22.5225 491.713 24.8988 489.97 31.1694C484.954 49.2913 479.923 67.3978 474.908 85.5197C473.363 91.1004 468.286 94.9792 462.506 94.9639C456.726 94.9639 451.65 91.085 450.105 85.5044C445.104 67.3978 440.119 49.2913 435.119 31.1694C433.376 24.8988 442.795 22.507 444.477 28.5783C449.478 46.7002 454.462 64.8374 459.463 82.9592C459.845 84.3391 461.099 85.2897 462.521 85.2897C463.943 85.2897 465.198 84.3391 465.58 82.9592C470.58 64.8374 475.596 46.7002 480.611 28.5783Z" fill="#6530F7"/>
<path d="M508.888 0C506.227 0 504.071 2.16174 504.071 4.82943C504.071 6.59256 504.071 8.34035 504.071 10.1035C504.071 12.7712 506.227 15.0096 508.888 15.0096C511.548 15.0096 513.704 12.8478 513.704 10.1035C513.704 8.34035 513.704 6.59256 513.704 4.82943C513.72 2.16174 511.564 0 508.888 0Z" fill="#6530F7"/>
<path d="M577.845 31.3226C583.442 49.7204 589.024 68.1183 594.62 86.5314C595.92 90.8549 599.513 94.1971 604.667 94.9024C604.59 95.1324 604.529 95.3777 604.453 95.6384C603.811 97.7541 602.908 100.606 602.098 103.013C601.287 105.42 600.553 107.367 598.153 108.425C595.751 109.483 591.669 109.621 588.473 109.299C585.277 108.977 582.967 108.195 581.072 108.164C579.175 108.134 577.662 108.885 576.805 110.265C575.949 111.645 575.765 113.653 576.316 115.124C576.866 116.581 578.167 117.501 580.69 118.145C583.212 118.789 586.974 119.188 590.645 119.234C594.299 119.279 597.863 118.988 600.859 117.869C603.872 116.75 606.334 114.788 608.076 112.411C609.82 110.035 610.844 107.214 611.487 105.328C612.144 103.442 612.435 102.461 613.169 100.085C613.888 97.7081 615.034 93.9058 633.996 31.3532C635.846 25.236 626.565 22.4303 624.714 28.5322C619.148 46.9148 613.582 65.2819 608.016 83.6644C607.388 85.7188 604.468 85.7801 603.841 83.741C598.245 65.3433 592.663 46.9454 587.066 28.5322C586.27 25.9413 583.534 24.5614 581.026 25.2819C578.487 26.0485 577.05 28.7929 577.845 31.3226Z" fill="#6530F7"/>
<path d="M610.739 158.39C610.739 152.104 610.739 148.178 608.904 143.64C607.07 139.102 603.415 133.951 596.962 131.452C590.508 128.937 581.288 129.076 569.131 132.785C569.131 126.407 569.131 120.03 569.131 113.667C569.054 111 566.821 108.838 564.161 108.838C561.5 108.838 559.344 111 559.344 113.667C559.344 140.713 559.344 167.742 559.344 194.786C559.344 197.454 561.5 199.615 564.161 199.615C566.821 199.615 568.978 197.454 568.978 194.786C568.978 177.615 568.978 160.443 568.978 143.257C573.29 141.096 580.798 139.409 586.517 139.454C592.236 139.501 596.167 141.264 598.293 144.315C600.417 147.351 600.754 151.659 600.907 154.143C601.075 156.626 601.075 157.286 601.075 159.248C601.075 161.211 601.075 164.491 601.075 194.786C601.075 197.454 603.231 199.615 605.891 199.615C608.553 199.615 610.709 197.454 610.709 194.786C610.709 181.847 610.709 168.907 610.709 155.967" fill="#6530F7"/>
<path d="M372.709 197.792C373.642 198.942 375.018 199.663 376.517 199.663C377.602 199.663 378.596 199.294 379.468 198.651C380.477 197.854 381.119 196.704 381.272 195.4C381.41 194.097 381.058 192.871 380.263 191.858C372.923 182.399 365.583 172.956 358.243 163.495C358.335 163.373 358.442 163.251 358.534 163.128C365.736 154.665 372.923 146.186 380.126 137.723C380.921 136.711 381.349 135.485 381.272 134.181C381.196 132.878 380.554 131.729 379.621 130.931C378.474 129.92 377.251 129.705 376.455 129.705C375.018 129.705 373.718 130.349 372.785 131.437C364.344 141.372 355.888 151.308 347.447 161.242C347.447 145.358 347.447 129.491 347.447 113.607C347.447 110.939 345.291 108.777 342.63 108.777C339.97 108.777 337.813 110.939 337.813 113.607C337.813 140.652 337.813 167.681 337.813 194.725C337.813 197.394 339.97 199.556 342.63 199.556C343.93 199.556 345.154 199.049 346.01 198.114C346.943 197.179 347.447 195.952 347.447 194.649C347.447 184.883 347.447 175.116 347.447 165.351C355.873 176.206 364.283 186.999 372.709 197.792Z" fill="#6530F7"/>
<path d="M508.102 25.0352C505.442 25.0352 503.286 27.1969 503.286 29.8647C503.286 49.9336 503.286 69.9872 503.286 90.0562C503.286 92.7239 505.442 94.9623 508.102 94.9623C510.763 94.9623 512.919 92.8005 512.919 90.0562C512.919 69.9872 512.919 49.9336 512.919 29.8647C512.996 27.1969 510.839 25.0352 508.102 25.0352Z" fill="#6530F7"/>
<path d="M319.462 131.207C326.42 132.174 324.952 141.955 318.193 140.913C307.443 139.241 302.779 139.302 299.216 139.471C292.06 139.793 289.246 140.545 288.405 143.887C287.992 145.558 288.069 147.873 290.164 150.264C292.259 152.657 296.387 155.095 302.213 158.345C308.024 161.595 315.532 165.628 319.401 170.856C323.27 176.068 323.499 182.477 321.787 187.475C320.074 192.488 316.404 196.106 311.862 197.93C307.306 199.755 301.877 199.801 296.663 199.571C291.448 199.356 286.463 198.881 279.505 198.222C273.282 197.64 274.337 187.889 280.652 188.487C290.577 189.422 298.069 190.111 303.07 189.774C308.07 189.437 310.563 188.057 311.97 185.773C313.376 183.488 313.682 180.299 312.321 177.571C310.96 174.841 307.917 172.573 302.917 169.72C297.916 166.869 290.944 163.466 286.31 159.771C281.662 156.076 279.337 152.12 278.71 147.766C278.083 143.412 279.169 138.659 281.967 135.454C284.75 132.25 289.261 130.564 295.286 129.95C301.281 129.323 308.85 129.752 319.462 131.207Z" fill="#6530F7"/>
<path d="M550.719 27.6427C550.719 24.5764 550.719 21.5102 550.719 18.4285C550.719 17.9839 550.735 16.696 550.689 16.2514C550.581 15.4081 550.306 14.7029 549.816 14.0129C548.899 12.7404 547.446 11.9893 545.887 11.9893C544.327 11.9893 542.859 12.7404 541.957 14.0129C541.468 14.7029 541.192 15.4081 541.085 16.2514C541.025 16.696 541.055 17.9839 541.055 18.4285C541.055 21.4947 541.055 24.5611 541.055 27.6427C537.996 27.6427 534.938 27.6427 531.864 27.6427C531.466 27.6427 530.167 27.6274 529.77 27.6734C528.897 27.7653 528.179 28.0413 527.461 28.5626C526.191 29.4824 525.443 30.939 525.443 32.5181C525.443 34.082 526.207 35.5537 527.475 36.4583C528.195 36.9642 528.913 37.2402 529.784 37.3323C530.167 37.3782 531.498 37.3629 531.88 37.3629C534.938 37.3629 537.996 37.3629 541.07 37.3629C541.07 78.7734 541.1 82.2229 541.514 84.9059C541.957 87.7729 542.859 89.7354 544.25 91.1918C545.642 92.6484 547.539 93.6296 549.572 94.1662C551.59 94.7181 553.747 94.8561 556.01 94.8868C558.273 94.9174 560.659 94.8561 562.723 94.7181C564.787 94.5801 566.546 94.3809 567.754 93.3689C568.962 92.3724 569.62 90.5786 569.375 88.9688C569.13 87.3437 567.967 85.9025 566.821 85.2585C565.659 84.6146 564.511 84.7679 562.463 84.9673C560.429 85.1513 557.493 85.3659 555.459 85.2893C553.425 85.2126 552.294 84.86 551.652 84.1547C551.009 83.4648 550.872 82.4375 550.81 80.9658C550.749 79.5859 550.749 77.8075 550.735 37.3629C553.793 37.3629 556.851 37.3629 559.91 37.3629C560.399 37.3629 561.683 37.3782 562.157 37.3169C562.968 37.2096 563.64 36.9336 564.298 36.4583C565.567 35.5537 566.317 34.082 566.317 32.5181C566.317 30.9543 565.567 29.4824 564.298 28.578C563.64 28.1027 562.952 27.8267 562.157 27.7193C561.668 27.6581 560.383 27.6734 559.91 27.6734C556.836 27.6427 553.777 27.6427 550.719 27.6427Z" fill="#6530F7"/>
<path d="M477.748 132.279C477.748 129.212 477.748 126.146 477.748 123.064C477.748 122.619 477.764 121.331 477.718 120.888C477.611 120.044 477.335 119.339 476.846 118.648C475.944 117.376 474.475 116.625 472.916 116.625C471.357 116.625 469.888 117.376 468.986 118.648C468.497 119.339 468.221 120.044 468.114 120.888C468.054 121.331 468.084 122.619 468.084 123.064C468.084 126.13 468.084 129.197 468.084 132.279C465.026 132.279 461.967 132.279 458.893 132.279C458.496 132.279 457.197 132.263 456.799 132.309C455.927 132.402 455.208 132.678 454.489 133.198C453.22 134.118 452.471 135.575 452.471 137.153C452.471 138.718 453.236 140.189 454.505 141.094C455.224 141.6 455.942 141.876 456.813 141.968C457.197 142.014 458.527 141.998 458.909 141.998C461.967 141.998 465.026 141.998 468.1 141.998C468.1 183.409 468.13 186.859 468.543 189.541C468.986 192.408 469.888 194.371 471.28 195.827C472.671 197.284 474.567 198.265 476.601 198.802C478.619 199.353 480.776 199.492 483.039 199.522C485.302 199.553 487.687 199.492 489.752 199.353C491.817 199.216 493.575 199.016 494.783 198.005C495.991 197.008 496.649 195.214 496.404 193.605C496.159 191.979 494.997 190.538 493.851 189.894C492.688 189.251 491.541 189.404 489.492 189.603C487.458 189.787 484.523 190.002 482.489 189.924C480.455 189.848 479.323 189.495 478.681 188.79C478.039 188.101 477.901 187.073 477.84 185.602C477.778 184.222 477.778 182.443 477.764 141.998C480.822 141.998 483.88 141.998 486.939 141.998C487.428 141.998 488.712 142.014 489.186 141.952C489.997 141.845 490.669 141.569 491.327 141.094C492.596 140.189 493.346 138.718 493.346 137.153C493.346 135.59 492.596 134.118 491.327 133.214C490.669 132.738 489.981 132.462 489.186 132.355C488.697 132.294 487.412 132.309 486.939 132.309C483.865 132.279 480.806 132.279 477.748 132.279Z" fill="#6530F7"/>
<path d="M541.579 130.717C537.709 130.104 531.44 129.552 526.058 129.92C520.675 130.288 516.164 131.56 512.479 134.397C508.794 137.217 505.949 141.603 504.344 145.697C502.723 149.789 502.34 153.576 502.157 158.958C501.973 164.339 501.973 171.314 502.508 176.268C503.043 181.219 504.129 184.132 506.026 187.351C507.921 190.571 510.643 194.098 514.36 196.274C518.075 198.452 522.785 199.31 526.945 199.571C531.103 199.832 534.728 199.51 537.924 199.203C541.119 198.897 543.903 198.621 545.645 197.701C547.389 196.78 548.108 195.217 548.077 193.607C548.047 191.997 547.267 190.326 546.059 189.468C544.836 188.624 543.184 188.594 540.799 188.9C538.413 189.207 535.309 189.866 531.226 189.928C527.128 189.989 522.051 189.468 518.564 187.214C515.078 184.945 513.182 180.943 512.28 175.194C511.377 169.444 511.469 161.932 512.051 156.443C512.632 150.955 513.686 147.49 515.629 144.899C517.571 142.308 520.399 140.575 524.146 139.84C527.892 139.103 532.525 139.349 536.15 139.808C539.759 140.269 542.358 140.928 544.239 140.743C546.136 140.575 547.328 139.564 547.894 138.092C548.475 136.619 548.429 134.688 547.665 133.369C546.93 132.021 545.447 131.33 541.579 130.717Z" fill="#6530F7"/>
<defs>
<linearGradient id="paint0_linear_1220_13228" x1="77.4055" y1="174.612" x2="155.619" y2="183.795" gradientUnits="userSpaceOnUse">
<stop offset="0.3" stop-color="#6530F7"/>
<stop offset="0.81" stop-color="#3D169C"/>
</linearGradient>
<linearGradient id="paint1_linear_1220_13228" x1="19.9583" y1="91.6124" x2="40.256" y2="47.7122" gradientUnits="userSpaceOnUse">
<stop stop-color="#6530F7"/>
<stop offset="1" stop-color="#3D169C"/>
</linearGradient>
<linearGradient id="paint2_linear_1220_13228" x1="64.7818" y1="34.0734" x2="125.57" y2="30.7736" gradientUnits="userSpaceOnUse">
<stop stop-color="#9885FF"/>
<stop offset="0.71" stop-color="#6530F7"/>
</linearGradient>
</defs>
</svg>
