<svg width="240" height="39" viewBox="0 0 240 39" fill="none" xmlns="http://www.w3.org/2000/svg">
<g clip-path="url(#clip0_20445_351041)">
<path d="M50.383 14.4555C50.3305 13.5897 50.1993 12.5403 49.7269 11.5171C49.2282 10.5201 48.3621 9.57566 47.2599 8.99845C46.1313 8.42125 44.7404 8.21137 43.1657 8.18513C41.591 8.15888 39.8326 8.2901 38.6516 8.395C37.4968 8.49998 36.9194 8.5787 36.4995 8.73609C36.0796 8.86731 35.8171 9.07718 35.6334 9.41821C35.4497 9.7593 35.3447 10.2578 35.5022 10.73C35.6597 11.176 36.0796 11.5696 36.5257 11.727C36.9719 11.8582 37.4181 11.7532 38.3629 11.6221C39.3077 11.4909 40.7512 11.3335 42.2471 11.3335C43.7168 11.3335 45.239 11.4646 46.1576 12.0943C47.0761 12.7239 47.3911 13.8521 47.3911 17.4726C42.3783 17.3677 40.4625 17.6301 38.9928 18.0761C37.4706 18.5483 36.4208 19.2304 35.7646 20.0962C35.1085 20.962 34.8461 22.0114 34.7673 23.2707C34.6886 24.5301 34.7673 25.9993 35.1085 27.1537C35.4497 28.2818 36.0533 29.0689 36.9719 29.6985C37.9167 30.3544 39.1765 30.8529 40.8824 30.8792C42.562 30.9054 44.6616 30.4593 47.3648 28.754C47.3648 28.9115 47.3648 29.0951 47.3648 29.2525C47.3648 30.1183 48.0734 30.8004 48.9133 30.8004C49.7532 30.8004 50.4618 30.0921 50.4618 29.2525C50.4618 25.4221 50.4618 21.5654 50.4618 17.735C50.4355 15.9772 50.4355 15.3213 50.383 14.4555ZM47.3386 25.0548C44.058 27.1012 42.877 27.4422 41.8534 27.5997C40.7774 27.7571 39.8851 27.6522 39.2552 27.3898C38.5991 27.1274 38.2054 26.6814 38.0217 25.973C37.8117 25.2384 37.8117 24.2415 37.8642 23.4806C37.9167 22.6935 37.9955 22.1426 38.5728 21.6966C39.1502 21.2506 40.2 20.9095 41.5123 20.7521C42.7458 20.5947 44.1892 20.5947 47.3648 20.621C47.3386 22.0902 47.3386 23.5593 47.3386 25.0548Z" fill="#6530F7"></path>
<path d="M17.2863 8.97341C17.0501 8.5011 16.604 8.13384 15.9478 8.13384C15.2917 8.16008 14.4256 8.57983 14.3207 9.78667C11.9061 8.02887 9.25541 7.95021 7.18205 8.26499C5.08249 8.60608 3.56029 9.34067 2.48425 10.3901C1.40822 11.4658 0.778339 12.83 0.437156 13.9582C0.0959732 15.0601 0.0434839 15.8996 0.0172391 17.3426C-0.00900576 18.7856 -0.0090059 20.832 0.0434838 22.2749C0.122218 23.7179 0.253443 24.5574 0.67336 25.6594C1.11952 26.7875 1.88062 28.178 3.5078 29.2799C5.10873 30.3556 7.54951 31.1689 14.3732 30.3818C14.3732 31.5886 14.3732 31.9297 14.3732 32.2708C14.3732 32.7692 14.3732 33.1891 14.2157 33.635C14.0582 34.081 13.717 34.5533 13.0872 34.8419C12.4573 35.1567 11.5125 35.3141 10.4889 35.4191C9.46536 35.524 8.33687 35.5765 7.2083 35.4453C6.07979 35.3141 4.95126 34.9993 4.29514 34.6845C3.63903 34.3696 3.48156 34.0286 3.29784 33.6875C3.11413 33.3464 2.93041 32.9792 2.61548 32.7955C2.30054 32.6118 1.88062 32.6118 1.48695 32.7168C1.09327 32.848 0.725849 33.0841 0.515891 33.4252C0.305932 33.7662 0.253442 34.2123 0.463401 34.8156C0.67336 35.4191 1.14576 36.1799 1.93311 36.8096C2.7467 37.4393 3.87523 37.9115 5.26621 38.2001C6.65718 38.4887 8.28436 38.5936 9.80657 38.5149C11.3288 38.4362 12.746 38.2263 13.9795 37.754C15.213 37.2818 16.289 36.5734 16.8402 35.3929C17.3913 34.2123 17.4438 32.5594 17.47 31.3525C17.4963 30.1457 17.4963 29.4111 17.4963 26.4727C17.4963 23.5605 17.4963 18.4445 17.4963 15.4274C17.4963 12.384 17.4963 11.4133 17.4963 10.6787C17.5225 9.97037 17.5225 9.4194 17.2863 8.97341ZM14.3994 27.2073C7.28706 28.2305 5.52865 27.2073 4.55759 26.0529C3.56029 24.8723 3.35033 23.5867 3.24535 22.0913C3.14038 20.5958 3.14038 18.8643 3.14038 17.6837C3.14038 16.503 3.14038 15.8209 3.40282 15.0076C3.66527 14.1681 4.21641 13.1974 4.95126 12.5152C5.68612 11.8593 6.60469 11.5182 7.73321 11.3608C8.86177 11.2034 10.174 11.2034 11.2238 11.5707C12.2736 11.9643 13.0609 12.7251 13.5333 13.486C14.032 14.273 14.2157 15.0338 14.3207 15.7422C14.4256 16.4244 14.4256 17.0278 14.4256 20.7795C14.3994 22.4586 14.3994 24.8198 14.3994 27.2073Z" fill="#6530F7"></path>
<path d="M25.1055 9.52305C27.52 8.3687 29.0684 8.23748 30.0132 8.15875C31.0368 8.08009 31.378 8.08009 31.6929 8.21124C32.0341 8.34246 32.349 8.60482 32.5327 8.97208C32.7164 9.33942 32.7952 9.8379 32.6115 10.2576C32.4277 10.6774 32.0341 11.0447 31.5879 11.1759C31.1155 11.3071 30.5906 11.2284 29.5146 11.3596C28.5435 11.4907 27.1001 11.7793 25.1055 13.0911C25.1055 18.4432 25.1055 23.7953 25.1055 29.1212C25.1055 29.987 24.3968 30.6953 23.5308 30.6953C22.6647 30.6953 21.9561 29.987 21.9561 29.1212C21.9561 22.641 21.9561 16.1345 21.9561 9.65419C21.9561 8.81469 22.6122 8.13258 23.452 8.08009C24.2919 8.08009 25.0005 8.68348 25.1055 9.52305Z" fill="#6530F7"></path>
<path d="M68.3568 9.2604C68.908 7.29273 71.9524 8.07981 71.4014 10.1C69.7741 15.9505 68.1469 21.8274 66.5196 27.6779C66.021 29.4882 64.3676 30.7475 62.5043 30.7475C60.6146 30.7475 58.9875 29.4882 58.4888 27.6779C56.8616 21.8274 55.2344 15.9505 53.6335 10.1C53.0561 8.07981 56.1267 7.29273 56.6779 9.2604C58.305 15.1372 59.9323 20.9878 61.5331 26.8647C61.6644 27.3107 62.058 27.6255 62.5304 27.6255C63.0029 27.6255 63.3966 27.3107 63.5277 26.8647C65.1025 20.9878 66.7297 15.1372 68.3568 9.2604Z" fill="#6530F7"></path>
<path d="M77.5422 0C76.6758 0 75.9678 0.708383 75.9678 1.57419C75.9678 2.15139 75.9678 2.70235 75.9678 3.27955C75.9678 4.14536 76.6758 4.87998 77.5422 4.87998C78.4086 4.87998 79.1166 4.1716 79.1166 3.27955C79.1166 2.70235 79.1166 2.15139 79.1166 1.57419C79.1166 0.708383 78.4086 0 77.5422 0Z" fill="#6530F7"></path>
<path d="M99.9286 10.1519C101.74 16.1074 103.55 22.0629 105.361 28.0184C105.782 29.409 106.963 30.5108 108.616 30.7207C108.59 30.7994 108.563 30.8782 108.537 30.9569C108.327 31.639 108.039 32.5572 107.776 33.3443C107.514 34.1314 107.277 34.761 106.49 35.1021C105.703 35.4432 104.39 35.4956 103.341 35.3907C102.291 35.2858 101.556 35.0234 100.926 35.0234C100.296 35.0234 99.8238 35.2595 99.5352 35.7056C99.2467 36.1516 99.1939 36.8074 99.3776 37.2797C99.5613 37.7519 99.9814 38.0405 100.795 38.2504C101.609 38.4603 102.842 38.5915 104.023 38.5915C105.204 38.6177 106.359 38.5128 107.33 38.1455C108.301 37.7782 109.115 37.1485 109.666 36.3877C110.243 35.6269 110.558 34.7086 110.768 34.1052C110.978 33.5017 111.083 33.1869 111.319 32.3999C111.555 31.639 111.923 30.4059 118.091 10.1519C118.694 8.15797 115.676 7.26591 115.072 9.23359C113.261 15.1892 111.45 21.1184 109.639 27.074C109.429 27.7298 108.485 27.7561 108.274 27.1002C106.464 21.1447 104.653 15.1892 102.842 9.23359C102.579 8.39409 101.687 7.94802 100.874 8.18414C100.139 8.4465 99.6661 9.33856 99.9286 10.1519Z" fill="#6530F7"></path>
<path d="M77.2841 8.10753C76.4177 8.10753 75.709 8.81595 75.709 9.6817C75.709 16.1882 75.709 22.6684 75.709 29.1749C75.709 30.0407 76.4177 30.7753 77.2841 30.7753C78.1498 30.7753 78.8585 30.067 78.8585 29.1749C78.8585 22.6684 78.8585 16.1882 78.8585 9.6817C78.8846 8.81595 78.1765 8.10753 77.2841 8.10753Z" fill="#6530F7"></path>
<path d="M91.115 8.94562C91.115 7.94866 91.115 6.95172 91.115 5.95476C91.115 5.82358 91.115 5.40381 91.115 5.24639C91.0889 4.98404 90.9833 4.74791 90.8264 4.51179C90.5378 4.09201 90.0649 3.8559 89.5405 3.8559C89.0415 3.8559 88.5693 4.09201 88.254 4.51179C88.097 4.74791 88.0182 4.9578 87.9654 5.24639C87.9394 5.37757 87.9654 5.79734 87.9654 5.95476C87.9654 6.95172 87.9654 7.94866 87.9654 8.94562C86.9681 8.94562 85.9708 8.94562 84.9735 8.94562C84.8426 8.94562 84.4224 8.94562 84.2915 8.94562C84.0022 8.97186 83.7665 9.07684 83.53 9.23422C83.1105 9.52283 82.874 9.99507 82.874 10.5198C82.874 11.0183 83.1105 11.4905 83.53 11.8054C83.7665 11.9627 84.0022 12.0677 84.2915 12.094C84.4224 12.094 84.8426 12.094 84.9735 12.094C85.9708 12.094 86.9681 12.094 87.9654 12.094C87.9654 25.5004 87.9654 26.6286 88.1231 27.4944C88.2807 28.4127 88.5693 29.0423 89.0155 29.5408C89.4617 30.013 90.0916 30.3278 90.7476 30.5115C91.4035 30.6952 92.1123 30.7214 92.847 30.7476C93.5818 30.7476 94.3433 30.7476 95.0253 30.6952C95.708 30.6427 96.2591 30.5902 96.6526 30.2491C97.046 29.9343 97.2564 29.3571 97.1776 28.8324C97.0988 28.3077 96.7314 27.8354 96.338 27.6256C95.9699 27.4157 95.5764 27.4681 94.9205 27.5206C94.2645 27.5731 93.3193 27.6518 92.6373 27.6256C91.9806 27.5993 91.6133 27.4944 91.4035 27.2582C91.1938 27.0221 91.141 26.7073 91.141 26.235C91.115 25.789 91.115 25.2118 91.115 12.1202C92.1123 12.1202 93.1096 12.1202 94.1069 12.1202C94.2645 12.1202 94.684 12.1202 94.8416 12.094C95.1042 12.0677 95.3139 11.9627 95.5504 11.8054C95.9699 11.5167 96.2063 11.0445 96.2063 10.5198C96.2063 10.0213 95.9699 9.54907 95.5504 9.23422C95.3406 9.07684 95.1042 8.99811 94.8416 8.94562C94.684 8.91938 94.2645 8.91938 94.1069 8.91938C93.1096 8.94562 92.1123 8.94562 91.115 8.94562Z" fill="#6530F7"></path>
<path d="M184.652 26.97C184.206 26.97 183.707 27.1274 182.447 27.2849C181.187 27.4685 179.167 27.6784 177.487 27.6259C175.807 27.5734 174.469 27.2587 173.576 26.5241C172.685 25.7894 172.264 24.635 172.055 23.6643C171.844 22.7198 171.844 21.9852 171.844 20.4636C176.647 20.4636 181.45 20.4636 186.227 20.4636C186.227 18.4434 186.227 16.9742 186.069 15.5837C185.911 14.1932 185.571 12.9076 184.783 11.6746C183.995 10.4415 182.736 9.28706 180.978 8.65743C179.219 8.02774 176.988 7.94908 175.151 8.34259C173.288 8.73616 171.818 9.60191 170.821 10.7825C169.797 11.9632 169.246 13.4848 168.984 14.5867C168.695 15.6886 168.695 16.397 168.695 17.4989C168.695 18.6008 168.695 20.07 168.695 21.1719C168.695 22.2738 168.695 23.0346 168.957 24.1628C169.22 25.2909 169.719 26.7863 170.69 27.967C171.66 29.1476 173.104 29.9872 174.679 30.4069C176.28 30.8267 178.012 30.8004 179.718 30.7218C181.424 30.6168 183.13 30.4594 184.153 30.2495C185.176 30.0658 185.544 29.8297 185.78 29.5674C186.043 29.305 186.174 28.964 186.174 28.5966C186.174 28.2031 186.043 27.7571 185.754 27.4423C185.492 27.1274 185.098 26.97 184.652 26.97ZM174.915 11.6746C176.516 11.0711 178.406 11.0711 180.006 11.6483C181.607 12.2255 182.919 13.4061 183.025 17.2628C179.272 17.2628 175.519 17.2628 171.792 17.2628C171.949 13.5111 173.314 12.2779 174.915 11.6746Z" fill="#6530F7"></path>
<path d="M239.9 17.4195C239.9 15.3731 239.9 14.1138 239.296 12.6446C238.692 11.1754 237.511 9.49631 235.411 8.70923C233.312 7.8959 230.32 7.94839 226.384 9.12898C226.384 7.05633 226.384 5.00995 226.384 2.93732C226.357 2.07154 225.649 1.36317 224.782 1.36317C223.916 1.36317 223.208 2.07154 223.208 2.93732C223.208 11.7001 223.208 20.4366 223.208 29.1994C223.208 30.0651 223.916 30.7736 224.782 30.7736C225.649 30.7736 226.357 30.0651 226.357 29.1994C226.357 23.6374 226.357 18.0754 226.357 12.5134C227.748 11.805 230.189 11.254 232.052 11.2803C233.916 11.3065 235.176 11.8575 235.884 12.8545C236.566 13.8514 236.671 15.242 236.724 16.029C236.776 16.8423 236.776 17.0522 236.776 17.6819C236.776 18.3115 236.776 19.3872 236.776 29.1994C236.776 30.0651 237.485 30.7736 238.351 30.7736C239.217 30.7736 239.926 30.0651 239.926 29.1994C239.926 25.0017 239.926 20.8301 239.926 16.6324" fill="#6530F7"></path>
<path d="M162.632 30.1701C162.947 30.5374 163.367 30.7736 163.865 30.7736C164.207 30.7736 164.548 30.6686 164.837 30.4587C165.151 30.1964 165.362 29.829 165.414 29.4093C165.467 28.9895 165.335 28.5959 165.099 28.2549C162.71 25.1853 160.322 22.1419 157.96 19.0723C157.986 19.0461 158.013 18.9937 158.065 18.9674C160.401 16.2389 162.737 13.4842 165.072 10.7556C165.335 10.4408 165.467 10.021 165.441 9.60122C165.414 9.18147 165.204 8.81413 164.915 8.55177C164.548 8.23699 164.154 8.15826 163.891 8.15826C163.419 8.15826 163 8.36814 162.71 8.70923C159.981 11.9362 157.226 15.137 154.496 18.364C154.496 13.2218 154.496 8.07953 154.496 2.93732C154.496 2.07154 153.787 1.36317 152.921 1.36317C152.055 1.36317 151.347 2.07154 151.347 2.93732C151.347 11.7001 151.347 20.4366 151.347 29.1994C151.347 30.0651 152.055 30.7736 152.921 30.7736C153.341 30.7736 153.735 30.6161 154.024 30.3013C154.339 29.9865 154.496 29.5929 154.496 29.1731C154.496 26.0248 154.496 22.8503 154.496 19.702C157.173 23.1651 159.902 26.6807 162.632 30.1701Z" fill="#6530F7"></path>
<path d="M145.338 8.60432C147.595 8.9191 147.122 12.0937 144.917 11.7526C141.427 11.2016 139.905 11.2279 138.75 11.2804C136.441 11.3853 135.522 11.6214 135.234 12.6971C135.102 13.248 135.128 13.9826 135.811 14.7697C136.493 15.5306 137.831 16.3439 139.721 17.3933C141.611 18.4427 144.052 19.7545 145.312 21.4336C146.571 23.1127 146.65 25.1853 146.098 26.812C145.547 28.4385 144.34 29.593 142.871 30.1963C141.401 30.7998 139.642 30.7998 137.936 30.7211C136.257 30.6424 134.63 30.485 132.373 30.2751C130.352 30.0914 130.693 26.9169 132.74 27.1268C135.968 27.4416 138.382 27.6515 140.01 27.5466C141.637 27.4416 142.451 26.9956 142.897 26.261C143.343 25.5264 143.448 24.5032 143.002 23.6112C142.555 22.7191 141.585 21.9845 139.958 21.0663C138.33 20.148 136.073 19.0462 134.551 17.8393C133.055 16.6324 132.294 15.3731 132.084 13.9564C131.874 12.5397 132.242 11.018 133.133 9.96854C134.053 8.9191 135.495 8.39437 137.464 8.1845C139.459 8.00087 141.899 8.13201 145.338 8.60432Z" fill="#6530F7"></path>
<path d="M196.725 8.94562C196.725 7.94866 196.725 6.95172 196.725 5.95476C196.725 5.82358 196.725 5.40381 196.725 5.24639C196.699 4.98404 196.594 4.74791 196.436 4.51179C196.147 4.09201 195.675 3.8559 195.15 3.8559C194.652 3.8559 194.18 4.09201 193.864 4.51179C193.707 4.74791 193.628 4.9578 193.576 5.24639C193.55 5.37757 193.576 5.79734 193.576 5.95476C193.576 6.95172 193.576 7.94866 193.576 8.94562C192.578 8.94562 191.581 8.94562 190.584 8.94562C190.452 8.94562 190.033 8.94562 189.901 8.94562C189.613 8.97186 189.377 9.07684 189.14 9.23422C188.72 9.52283 188.484 9.99507 188.484 10.5198C188.484 11.0183 188.72 11.4905 189.14 11.8054C189.377 11.9627 189.613 12.0677 189.901 12.094C190.033 12.094 190.452 12.094 190.584 12.094C191.581 12.094 192.578 12.094 193.576 12.094C193.576 25.5004 193.576 26.6286 193.733 27.4944C193.89 28.4127 194.179 29.0423 194.625 29.5408C195.071 30.013 195.701 30.3278 196.358 30.5115C197.014 30.6952 197.723 30.7214 198.457 30.7476C199.192 30.7476 199.953 30.7476 200.636 30.6952C201.318 30.6427 201.869 30.5902 202.263 30.2491C202.656 29.9343 202.866 29.3571 202.787 28.8324C202.709 28.3077 202.342 27.8354 201.948 27.6256C201.554 27.4157 201.187 27.4681 200.531 27.5206C199.874 27.5731 198.93 27.6518 198.247 27.6256C197.591 27.5993 197.224 27.4944 197.014 27.2582C196.803 27.0221 196.751 26.7073 196.751 26.235C196.725 25.789 196.725 25.2118 196.725 12.1202C197.723 12.1202 198.72 12.1202 199.717 12.1202C199.874 12.1202 200.294 12.1202 200.452 12.094C200.715 12.0677 200.924 11.9627 201.161 11.8054C201.58 11.5167 201.817 11.0445 201.817 10.5198C201.817 10.0213 201.58 9.54907 201.161 9.23422C200.95 9.07684 200.715 8.99811 200.452 8.94562C200.294 8.91938 199.874 8.91938 199.717 8.91938C198.72 8.94562 197.723 8.94562 196.725 8.94562Z" fill="#6530F7"></path>
<path d="M217.456 8.44728C216.196 8.23741 214.175 8.08002 212.417 8.18492C210.658 8.31614 209.215 8.70964 208.008 9.62787C206.827 10.5462 205.882 11.9629 205.357 13.2747C204.832 14.5865 204.701 15.8196 204.648 17.5774C204.596 19.3089 204.596 21.5652 204.753 23.1656C204.937 24.766 205.278 25.7104 205.908 26.7599C206.538 27.8093 207.404 28.9374 208.611 29.6458C209.819 30.3542 211.341 30.6166 212.706 30.7215C214.044 30.8002 215.225 30.6952 216.275 30.5903C217.325 30.4854 218.217 30.4066 218.768 30.0919C219.345 29.8033 219.556 29.2785 219.556 28.7538C219.556 28.2291 219.293 27.6781 218.899 27.4158C218.506 27.1534 217.955 27.1272 217.194 27.2321C216.432 27.3371 215.409 27.547 214.096 27.5732C212.758 27.5995 211.131 27.4158 209.976 26.6812C208.847 25.9466 208.218 24.661 207.929 22.7983C207.64 20.9355 207.666 18.4956 207.85 16.7378C208.034 14.9538 208.375 13.8518 209.005 13.0123C209.635 12.1728 210.553 11.6218 211.761 11.3857C212.968 11.1496 214.49 11.2283 215.645 11.3857C216.826 11.5431 217.666 11.753 218.269 11.7005C218.873 11.648 219.266 11.307 219.45 10.8348C219.634 10.3625 219.634 9.73285 219.372 9.3131C219.188 8.86703 218.715 8.65716 217.456 8.44728Z" fill="#6530F7"></path>
<path d="M50.383 14.4555C50.3305 13.5897 50.1993 12.5403 49.7269 11.5171C49.2282 10.5201 48.3621 9.57565 47.2599 8.99844C46.1313 8.42123 44.7404 8.21136 43.1657 8.18511C41.591 8.15887 39.8326 8.29008 38.6516 8.39499C37.4968 8.49996 36.9194 8.57869 36.4995 8.73608C36.0796 8.86729 35.8171 9.07717 35.6334 9.41819C35.4497 9.75928 35.3447 10.2578 35.5022 10.73C35.6597 11.176 36.0796 11.5696 36.5257 11.727C36.9719 11.8582 37.4181 11.7532 38.3629 11.6221C39.3077 11.4908 40.7512 11.3335 42.2471 11.3335C43.7168 11.3335 45.239 11.4646 46.1576 12.0943C47.0761 12.7239 47.3911 13.8521 47.3911 17.4726C42.3783 17.3677 40.4625 17.6301 38.9928 18.0761C37.4706 18.5483 36.4208 19.2304 35.7646 20.0962C35.1085 20.962 34.8461 22.0114 34.7673 23.2707C34.6886 24.5301 34.7673 25.9992 35.1085 27.1537C35.4497 28.2818 36.0533 29.0689 36.9719 29.6985C37.9167 30.3544 39.1765 30.8529 40.8824 30.8791C42.562 30.9054 44.6616 30.4593 47.3648 28.754C47.3648 28.9115 47.3648 29.0951 47.3648 29.2525C47.3648 30.1183 48.0734 30.8004 48.9133 30.8004C49.7531 30.8004 50.4617 30.0921 50.4617 29.2525C50.4617 25.422 50.4617 21.5654 50.4617 17.735C50.4355 15.9772 50.4355 15.3213 50.383 14.4555ZM47.3386 25.0548C44.058 27.1012 42.877 27.4422 41.8534 27.5997C40.7774 27.757 39.8851 27.6521 39.2552 27.3898C38.5991 27.1274 38.2054 26.6814 38.0217 25.973C37.8117 25.2384 37.8117 24.2414 37.8642 23.4806C37.9167 22.6935 37.9955 22.1426 38.5728 21.6966C39.1502 21.2506 40.2 20.9095 41.5123 20.7521C42.7458 20.5947 44.1892 20.5947 47.3648 20.6209C47.3386 22.0901 47.3386 23.5593 47.3386 25.0548Z" fill="#6530F7"></path>
<path d="M17.2863 8.97343C17.0501 8.50112 16.604 8.13385 15.9478 8.13385C15.2917 8.1601 14.4256 8.57985 14.3207 9.78668C11.9061 8.02888 9.25541 7.95022 7.18205 8.265C5.08249 8.60609 3.56029 9.34069 2.48425 10.3901C1.40822 11.4658 0.778339 12.8301 0.437156 13.9582C0.0959732 15.0601 0.0434839 15.8997 0.0172391 17.3426C-0.00900576 18.7856 -0.0090059 20.832 0.0434838 22.2749C0.122218 23.718 0.253443 24.5575 0.67336 25.6594C1.11952 26.7875 1.88062 28.178 3.5078 29.2799C5.10873 30.3556 7.54951 31.1689 14.3732 30.3818C14.3732 31.5887 14.3732 31.9298 14.3732 32.2708C14.3732 32.7693 14.3732 33.1891 14.2157 33.6351C14.0582 34.0811 13.717 34.5533 13.0872 34.8419C12.4573 35.1567 11.5125 35.3141 10.4889 35.4191C9.46536 35.524 8.33687 35.5765 7.2083 35.4454C6.07979 35.3141 4.95126 34.9994 4.29514 34.6845C3.63903 34.3697 3.48156 34.0286 3.29784 33.6876C3.11413 33.3465 2.93041 32.9792 2.61548 32.7955C2.30054 32.6119 1.88062 32.6119 1.48695 32.7168C1.09327 32.848 0.725849 33.0841 0.515891 33.4252C0.305932 33.7662 0.253442 34.2123 0.463401 34.8157C0.67336 35.4191 1.14576 36.18 1.93311 36.8096C2.7467 37.4393 3.87523 37.9115 5.26621 38.2001C6.65718 38.4887 8.28436 38.5936 9.80657 38.515C11.3288 38.4362 12.746 38.2264 13.9795 37.7541C15.213 37.2818 16.289 36.5735 16.8402 35.3929C17.3913 34.2123 17.4438 32.5594 17.47 31.3525C17.4963 30.1457 17.4963 29.4111 17.4963 26.4727C17.4963 23.5605 17.4963 18.4445 17.4963 15.4274C17.4963 12.3841 17.4963 11.4133 17.4963 10.6787C17.5225 9.97039 17.5225 9.41942 17.2863 8.97343ZM14.3994 27.2073C7.28706 28.2305 5.52865 27.2073 4.55759 26.0529C3.56029 24.8723 3.35033 23.5867 3.24535 22.0913C3.14038 20.5959 3.14038 18.8643 3.14038 17.6837C3.14038 16.503 3.14038 15.8209 3.40282 15.0076C3.66527 14.1681 4.21641 13.1974 4.95126 12.5152C5.68612 11.8593 6.60469 11.5182 7.73321 11.3609C8.86177 11.2035 10.174 11.2035 11.2238 11.5707C12.2736 11.9643 13.0609 12.7251 13.5333 13.486C14.032 14.273 14.2157 15.0338 14.3207 15.7422C14.4256 16.4244 14.4256 17.0278 14.4256 20.7795C14.3994 22.4586 14.3994 24.8198 14.3994 27.2073Z" fill="#6530F7"></path>
<path d="M25.1055 9.52306C27.52 8.36871 29.0684 8.2375 30.0132 8.15877C31.0368 8.08011 31.378 8.08011 31.6929 8.21125C32.0341 8.34247 32.349 8.60483 32.5327 8.9721C32.7164 9.33943 32.7952 9.83791 32.6115 10.2577C32.4277 10.6774 32.0341 11.0447 31.5879 11.1759C31.1155 11.3071 30.5906 11.2284 29.5146 11.3596C28.5435 11.4907 27.1001 11.7793 25.1055 13.0912C25.1055 18.4432 25.1055 23.7953 25.1055 29.1212C25.1055 29.987 24.3968 30.6953 23.5308 30.6953C22.6647 30.6953 21.9561 29.987 21.9561 29.1212C21.9561 22.641 21.9561 16.1345 21.9561 9.65421C21.9561 8.81471 22.6122 8.1326 23.452 8.08011C24.2919 8.08011 25.0005 8.68349 25.1055 9.52306Z" fill="#6530F7"></path>
<path d="M68.3568 9.26042C68.908 7.29274 71.9524 8.07983 71.4014 10.1C69.7741 15.9505 68.1469 21.8274 66.5196 27.6779C66.021 29.4882 64.3676 30.7475 62.5043 30.7475C60.6146 30.7475 58.9875 29.4882 58.4888 27.6779C56.8616 21.8274 55.2344 15.9505 53.6335 10.1C53.0561 8.07983 56.1267 7.29274 56.6779 9.26042C58.305 15.1372 59.9323 20.9878 61.5331 26.8647C61.6644 27.3107 62.058 27.6255 62.5304 27.6255C63.0029 27.6255 63.3966 27.3107 63.5277 26.8647C65.1025 20.9878 66.7297 15.1372 68.3568 9.26042Z" fill="#6530F7"></path>
<path d="M77.5422 0C76.6758 0 75.9678 0.708383 75.9678 1.57419C75.9678 2.15139 75.9678 2.70235 75.9678 3.27955C75.9678 4.14536 76.6758 4.87998 77.5422 4.87998C78.4086 4.87998 79.1166 4.1716 79.1166 3.27955C79.1166 2.70235 79.1166 2.15139 79.1166 1.57419C79.1166 0.708383 78.4086 0 77.5422 0Z" fill="#6530F7"></path>
<path d="M99.9286 10.1519C101.74 16.1074 103.55 22.0629 105.361 28.0184C105.782 29.409 106.963 30.5108 108.616 30.7207C108.59 30.7994 108.563 30.8782 108.537 30.9569C108.327 31.639 108.039 32.5572 107.776 33.3443C107.514 34.1314 107.277 34.761 106.49 35.1021C105.703 35.4432 104.39 35.4956 103.341 35.3907C102.291 35.2858 101.556 35.0234 100.926 35.0234C100.296 35.0234 99.8238 35.2595 99.5352 35.7056C99.2467 36.1516 99.1939 36.8074 99.3776 37.2797C99.5613 37.7519 99.9814 38.0405 100.795 38.2504C101.609 38.4603 102.842 38.5915 104.023 38.5915C105.204 38.6177 106.359 38.5128 107.33 38.1455C108.301 37.7782 109.115 37.1485 109.666 36.3877C110.243 35.6269 110.558 34.7086 110.768 34.1052C110.978 33.5017 111.083 33.1869 111.319 32.3999C111.555 31.639 111.923 30.4059 118.091 10.1519C118.694 8.15797 115.676 7.26591 115.072 9.23359C113.261 15.1892 111.45 21.1184 109.639 27.074C109.429 27.7298 108.485 27.7561 108.274 27.1002C106.464 21.1447 104.653 15.1892 102.842 9.23359C102.579 8.39409 101.687 7.94802 100.874 8.18414C100.139 8.4465 99.6661 9.33856 99.9286 10.1519Z" fill="#6530F7"></path>
<path d="M77.2841 8.10754C76.4177 8.10754 75.709 8.81597 75.709 9.68171C75.709 16.1882 75.709 22.6684 75.709 29.1749C75.709 30.0407 76.4177 30.7753 77.2841 30.7753C78.1498 30.7753 78.8585 30.067 78.8585 29.1749C78.8585 22.6684 78.8585 16.1882 78.8585 9.68171C78.8846 8.81597 78.1765 8.10754 77.2841 8.10754Z" fill="#6530F7"></path>
<path d="M91.115 8.9456C91.115 7.94864 91.115 6.9517 91.115 5.95475C91.115 5.82356 91.115 5.40379 91.115 5.24638C91.0889 4.98402 90.9833 4.7479 90.8264 4.51178C90.5378 4.092 90.0649 3.85588 89.5405 3.85588C89.0415 3.85588 88.5693 4.092 88.254 4.51178C88.097 4.7479 88.0182 4.95779 87.9654 5.24638C87.9394 5.37756 87.9654 5.79733 87.9654 5.95475C87.9654 6.9517 87.9654 7.94864 87.9654 8.9456C86.9681 8.9456 85.9708 8.9456 84.9735 8.9456C84.8426 8.9456 84.4224 8.9456 84.2915 8.9456C84.0022 8.97185 83.7665 9.07682 83.53 9.23421C83.1105 9.52281 82.874 9.99505 82.874 10.5198C82.874 11.0183 83.1105 11.4905 83.53 11.8053C83.7665 11.9627 84.0022 12.0677 84.2915 12.0939C84.4224 12.0939 84.8426 12.0939 84.9735 12.0939C85.9708 12.0939 86.9681 12.0939 87.9654 12.0939C87.9654 25.5004 87.9654 26.6286 88.1231 27.4943C88.2807 28.4126 88.5693 29.0423 89.0155 29.5407C89.4617 30.013 90.0916 30.3278 90.7476 30.5115C91.4035 30.6952 92.1123 30.7213 92.847 30.7476C93.5818 30.7476 94.3434 30.7476 95.0253 30.6952C95.708 30.6427 96.2591 30.5902 96.6526 30.2491C97.046 29.9343 97.2564 29.3571 97.1776 28.8324C97.0988 28.3077 96.7314 27.8354 96.338 27.6256C95.9699 27.4157 95.5764 27.4681 94.9205 27.5206C94.2645 27.5731 93.3193 27.6518 92.6373 27.6256C91.9806 27.5993 91.6133 27.4943 91.4035 27.2582C91.1938 27.0221 91.141 26.7073 91.141 26.235C91.115 25.789 91.115 25.2118 91.115 12.1202C92.1123 12.1202 93.1096 12.1202 94.1069 12.1202C94.2645 12.1202 94.684 12.1202 94.8416 12.0939C95.1042 12.0677 95.3139 11.9627 95.5504 11.8053C95.9699 11.5167 96.2063 11.0445 96.2063 10.5198C96.2063 10.0213 95.9699 9.54906 95.5504 9.23421C95.3407 9.07682 95.1042 8.99809 94.8416 8.9456C94.684 8.91936 94.2645 8.91936 94.1069 8.91936C93.1096 8.9456 92.1123 8.9456 91.115 8.9456Z" fill="#6530F7"></path>
<path d="M184.652 26.9701C184.206 26.9701 183.707 27.1275 182.447 27.2849C181.187 27.4685 179.167 27.6784 177.487 27.6259C175.807 27.5734 174.469 27.2587 173.576 26.5241C172.685 25.7894 172.264 24.6351 172.055 23.6643C171.844 22.7199 171.844 21.9853 171.844 20.4636C176.647 20.4636 181.45 20.4636 186.227 20.4636C186.227 18.4434 186.227 16.9742 186.069 15.5837C185.911 14.1932 185.571 12.9077 184.783 11.6746C183.995 10.4415 182.736 9.28708 180.978 8.65745C179.219 8.02775 176.988 7.94909 175.151 8.3426C173.288 8.73618 171.818 9.60192 170.821 10.7825C169.797 11.9632 169.246 13.4849 168.984 14.5867C168.695 15.6887 168.695 16.397 168.695 17.4989C168.695 18.6008 168.695 20.07 168.695 21.1719C168.695 22.2738 168.695 23.0346 168.957 24.1628C169.22 25.2909 169.719 26.7864 170.69 27.967C171.66 29.1476 173.104 29.9872 174.679 30.4069C176.28 30.8267 178.012 30.8004 179.718 30.7218C181.424 30.6168 183.13 30.4594 184.153 30.2495C185.176 30.0658 185.544 29.8297 185.78 29.5674C186.043 29.305 186.174 28.964 186.174 28.5966C186.174 28.2031 186.043 27.7571 185.754 27.4423C185.492 27.1275 185.098 26.9701 184.652 26.9701ZM174.915 11.6746C176.516 11.0711 178.406 11.0711 180.006 11.6483C181.607 12.2255 182.919 13.4061 183.025 17.2628C179.272 17.2628 175.519 17.2628 171.792 17.2628C171.949 13.5111 173.314 12.278 174.915 11.6746Z" fill="#6530F7"></path>
<path d="M239.9 17.4195C239.9 15.3731 239.9 14.1138 239.296 12.6446C238.692 11.1754 237.511 9.49633 235.411 8.70924C233.312 7.89592 230.32 7.9484 226.384 9.12899C226.384 7.05634 226.384 5.00997 226.384 2.93734C226.357 2.07156 225.649 1.36319 224.782 1.36319C223.916 1.36319 223.208 2.07156 223.208 2.93734C223.208 11.7001 223.208 20.4366 223.208 29.1994C223.208 30.0652 223.916 30.7736 224.782 30.7736C225.649 30.7736 226.357 30.0652 226.357 29.1994C226.357 23.6374 226.357 18.0754 226.357 12.5134C227.748 11.805 230.189 11.2541 232.052 11.2803C233.916 11.3065 235.176 11.8575 235.884 12.8545C236.566 13.8514 236.671 15.242 236.724 16.029C236.776 16.8423 236.776 17.0522 236.776 17.6819C236.776 18.3115 236.776 19.3872 236.776 29.1994C236.776 30.0652 237.485 30.7736 238.351 30.7736C239.217 30.7736 239.926 30.0652 239.926 29.1994C239.926 25.0017 239.926 20.8302 239.926 16.6324" fill="#6530F7"></path>
<path d="M162.632 30.1701C162.947 30.5374 163.367 30.7736 163.865 30.7736C164.207 30.7736 164.548 30.6686 164.837 30.4587C165.151 30.1964 165.362 29.829 165.414 29.4093C165.467 28.9895 165.335 28.596 165.099 28.2549C162.71 25.1853 160.322 22.142 157.96 19.0723C157.986 19.0461 158.013 18.9937 158.065 18.9674C160.401 16.2389 162.737 13.4842 165.072 10.7556C165.335 10.4408 165.467 10.021 165.441 9.60123C165.414 9.18148 165.204 8.81415 164.915 8.55178C164.548 8.23701 164.154 8.15828 163.891 8.15828C163.419 8.15828 163 8.36815 162.71 8.70924C159.981 11.9362 157.226 15.137 154.496 18.364C154.496 13.2218 154.496 8.07955 154.496 2.93734C154.496 2.07156 153.787 1.36319 152.921 1.36319C152.055 1.36319 151.347 2.07156 151.347 2.93734C151.347 11.7001 151.347 20.4366 151.347 29.1994C151.347 30.0652 152.055 30.7736 152.921 30.7736C153.341 30.7736 153.735 30.6161 154.024 30.3013C154.339 29.9865 154.496 29.5929 154.496 29.1732C154.496 26.0248 154.496 22.8503 154.496 19.702C157.173 23.1652 159.902 26.6808 162.632 30.1701Z" fill="#6530F7"></path>
<path d="M145.338 8.6043C147.595 8.91908 147.122 12.0937 144.917 11.7526C141.427 11.2016 139.905 11.2279 138.75 11.2803C136.441 11.3852 135.522 11.6214 135.234 12.697C135.102 13.248 135.128 13.9826 135.811 14.7697C136.493 15.5305 137.831 16.3439 139.721 17.3932C141.611 18.4427 144.052 19.7545 145.312 21.4336C146.571 23.1127 146.65 25.1853 146.098 26.8119C145.547 28.4385 144.34 29.593 142.871 30.1963C141.401 30.7998 139.642 30.7998 137.936 30.7211C136.257 30.6424 134.63 30.4849 132.373 30.2751C130.352 30.0914 130.693 26.9168 132.74 27.1268C135.968 27.4416 138.382 27.6514 140.01 27.5465C141.637 27.4416 142.451 26.9956 142.897 26.261C143.343 25.5264 143.448 24.5032 143.002 23.6112C142.555 22.7191 141.585 21.9845 139.958 21.0663C138.33 20.148 136.073 19.0461 134.551 17.8393C133.055 16.6324 132.294 15.3731 132.084 13.9564C131.874 12.5397 132.242 11.018 133.133 9.96853C134.053 8.91908 135.495 8.39436 137.464 8.18448C139.459 8.00085 141.899 8.132 145.338 8.6043Z" fill="#6530F7"></path>
<path d="M196.725 8.9456C196.725 7.94864 196.725 6.9517 196.725 5.95475C196.725 5.82356 196.725 5.40379 196.725 5.24638C196.699 4.98402 196.594 4.7479 196.436 4.51178C196.147 4.092 195.675 3.85588 195.15 3.85588C194.652 3.85588 194.18 4.092 193.864 4.51178C193.707 4.7479 193.628 4.95779 193.576 5.24638C193.55 5.37756 193.576 5.79733 193.576 5.95475C193.576 6.9517 193.576 7.94864 193.576 8.9456C192.578 8.9456 191.581 8.9456 190.584 8.9456C190.452 8.9456 190.033 8.9456 189.901 8.9456C189.613 8.97185 189.377 9.07682 189.14 9.23421C188.72 9.52281 188.484 9.99505 188.484 10.5198C188.484 11.0183 188.72 11.4905 189.14 11.8053C189.377 11.9627 189.613 12.0677 189.901 12.0939C190.033 12.0939 190.452 12.0939 190.584 12.0939C191.581 12.0939 192.578 12.0939 193.576 12.0939C193.576 25.5004 193.576 26.6286 193.733 27.4943C193.89 28.4126 194.179 29.0423 194.625 29.5407C195.071 30.013 195.701 30.3278 196.358 30.5115C197.014 30.6952 197.723 30.7213 198.457 30.7476C199.192 30.7476 199.953 30.7476 200.636 30.6952C201.318 30.6427 201.869 30.5902 202.263 30.2491C202.656 29.9343 202.866 29.3571 202.787 28.8324C202.709 28.3077 202.342 27.8354 201.948 27.6256C201.554 27.4157 201.187 27.4681 200.531 27.5206C199.874 27.5731 198.93 27.6518 198.247 27.6256C197.591 27.5993 197.224 27.4943 197.014 27.2582C196.803 27.0221 196.751 26.7073 196.751 26.235C196.725 25.789 196.725 25.2118 196.725 12.1202C197.723 12.1202 198.72 12.1202 199.717 12.1202C199.874 12.1202 200.294 12.1202 200.452 12.0939C200.715 12.0677 200.924 11.9627 201.161 11.8053C201.58 11.5167 201.817 11.0445 201.817 10.5198C201.817 10.0213 201.58 9.54906 201.161 9.23421C200.95 9.07682 200.715 8.99809 200.452 8.9456C200.294 8.91936 199.874 8.91936 199.717 8.91936C198.72 8.9456 197.723 8.9456 196.725 8.9456Z" fill="#6530F7"></path>
<path d="M217.456 8.44727C216.196 8.23739 214.175 8.08 212.417 8.18491C210.658 8.31612 209.215 8.70963 208.008 9.62786C206.827 10.5462 205.882 11.9629 205.357 13.2747C204.832 14.5865 204.701 15.8196 204.648 17.5774C204.596 19.3089 204.596 21.5652 204.753 23.1655C204.937 24.766 205.278 25.7104 205.908 26.7599C206.538 27.8093 207.404 28.9374 208.611 29.6458C209.819 30.3542 211.341 30.6166 212.706 30.7215C214.044 30.8002 215.225 30.6952 216.275 30.5903C217.325 30.4854 218.217 30.4066 218.768 30.0919C219.345 29.8032 219.556 29.2785 219.556 28.7538C219.556 28.2291 219.293 27.6781 218.899 27.4157C218.506 27.1534 217.955 27.1271 217.194 27.2321C216.432 27.3371 215.409 27.547 214.096 27.5732C212.758 27.5995 211.131 27.4158 209.976 26.6812C208.847 25.9466 208.218 24.661 207.929 22.7983C207.64 20.9355 207.666 18.4956 207.85 16.7378C208.034 14.9538 208.375 13.8518 209.005 13.0123C209.635 12.1727 210.553 11.6218 211.761 11.3857C212.968 11.1495 214.49 11.2283 215.645 11.3857C216.826 11.5431 217.666 11.753 218.269 11.7005C218.873 11.648 219.266 11.307 219.45 10.8348C219.634 10.3625 219.634 9.73283 219.372 9.31308C219.188 8.86702 218.715 8.65714 217.456 8.44727Z" fill="#6530F7"></path>
</g>
<defs>
<clipPath id="clip0_20445_351041">
<rect width="240" height="38.6964" fill="white"></rect>
</clipPath>
</defs>
</svg>