<svg width="583" height="94" viewBox="0 0 583 94" fill="none" xmlns="http://www.w3.org/2000/svg">
<g clip-path="url(#clip0_1220_13183)">
<path d="M122.39 35.115C122.262 33.012 121.944 30.4627 120.796 27.9772C119.585 25.5554 117.481 23.2611 114.803 21.859C112.062 20.4568 108.683 19.947 104.858 19.8832C101.033 19.8195 96.761 20.1382 93.8922 20.3931C91.0871 20.6481 89.6845 20.8393 88.6645 21.2216C87.6444 21.5404 87.0068 22.0502 86.5606 22.8786C86.1144 23.7072 85.8593 24.9181 86.2419 26.0652C86.6244 27.1486 87.6444 28.1047 88.7281 28.487C89.8121 28.8057 90.8958 28.5507 93.1909 28.2322C95.486 27.9134 98.9925 27.5311 102.626 27.5311C106.197 27.5311 109.894 27.8497 112.126 29.3793C114.357 30.9088 115.122 33.6493 115.122 42.4441C102.945 42.1893 98.2912 42.8266 94.7211 43.91C91.0234 45.0571 88.4732 46.7141 86.8793 48.8173C85.2855 50.9203 84.648 53.4696 84.4567 56.5287C84.2655 59.5878 84.4567 63.1567 85.2855 65.961C86.1144 68.7014 87.5806 70.6133 89.8121 72.1428C92.1071 73.7362 95.1673 74.9471 99.3112 75.0108C103.391 75.0746 108.492 73.991 115.058 69.8485C115.058 70.231 115.058 70.6771 115.058 71.0594C115.058 73.1626 116.779 74.8196 118.82 74.8196C120.86 74.8196 122.581 73.0989 122.581 71.0594C122.581 61.7546 122.581 52.3862 122.581 43.0814C122.517 38.8114 122.517 37.2182 122.39 35.115ZM114.994 60.8625C107.025 65.8335 104.156 66.6619 101.67 67.0444C99.0561 67.4267 96.8886 67.1719 95.3586 66.5346C93.7647 65.8973 92.8084 64.8137 92.362 63.093C91.852 61.3085 91.852 58.8868 91.9796 57.0385C92.1071 55.1266 92.2984 53.7884 93.7009 52.7048C95.1035 51.6214 97.6537 50.7928 100.841 50.4105C103.838 50.0282 107.344 50.0282 115.058 50.0919C114.994 53.6609 114.994 57.2298 114.994 60.8625Z" fill="#6530F7"/>
<path d="M41.9914 21.7975C41.4176 20.6502 40.3339 19.758 38.7399 19.758C37.1462 19.8218 35.0422 20.8414 34.7873 23.773C28.9219 19.503 22.4829 19.3119 17.4464 20.0766C12.3462 20.9052 8.64854 22.6896 6.03467 25.2389C3.42079 27.8519 1.89072 31.1659 1.06193 33.9064C0.233135 36.583 0.10563 38.6225 0.0418767 42.1276C-0.0218765 45.6328 -0.0218768 50.6039 0.105629 54.109C0.296889 57.6144 0.615655 59.6537 1.6357 62.3305C2.7195 65.0708 4.56834 68.4487 8.52103 71.1253C12.41 73.7383 18.339 75.714 34.9149 73.802C34.9149 76.7336 34.9149 77.5622 34.9149 78.3906C34.9149 79.6015 34.9149 80.6213 34.5322 81.7047C34.1498 82.7881 33.3209 83.9352 31.7909 84.6363C30.2608 85.4011 27.9657 85.7835 25.4793 86.0384C22.9929 86.2933 20.2516 86.4208 17.5102 86.1022C14.7688 85.7835 12.0274 85.0188 10.4336 84.254C8.8398 83.4892 8.45728 82.6606 8.011 81.8322C7.56474 81.0036 7.11846 80.1115 6.35344 79.6652C5.58839 79.2192 4.56834 79.2192 3.61205 79.4742C2.65574 79.7927 1.76321 80.3663 1.25318 81.1949C0.743159 82.0233 0.615653 83.1068 1.12568 84.5726C1.6357 86.0384 2.78325 87.8867 4.69585 89.4161C6.67219 90.9458 9.41357 92.0929 12.7925 92.794C16.1714 93.495 20.1241 93.7499 23.8218 93.5588C27.5195 93.3675 30.9621 92.8577 33.9585 91.7104C36.9548 90.5633 39.5688 88.8426 40.9076 85.9747C42.2465 83.1068 42.3738 79.0917 42.4376 76.1601C42.5014 73.2285 42.5014 71.444 42.5014 64.3062C42.5014 57.2319 42.5014 44.8044 42.5014 37.4753C42.5014 30.0825 42.5014 27.7244 42.5014 25.94C42.5652 24.2193 42.5652 22.8809 41.9914 21.7975ZM34.9786 66.0906C17.7015 68.5762 13.43 66.0906 11.0712 63.2863C8.64854 60.4185 8.13851 57.2956 7.88349 53.663C7.6285 50.0303 7.6285 45.824 7.6285 42.9562C7.6285 40.0882 7.6285 38.4312 8.26602 36.4555C8.90356 34.4162 10.2424 32.0582 12.0274 30.401C13.8125 28.8078 16.0439 27.9793 18.7853 27.5969C21.5267 27.2146 24.7142 27.2146 27.2644 28.1068C29.8146 29.0628 31.7272 30.911 32.8747 32.7592C34.086 34.671 34.5322 36.5192 34.7873 38.24C35.0422 39.8971 35.0422 41.3628 35.0422 50.4764C34.9786 54.5553 34.9786 60.291 34.9786 66.0906Z" fill="#6530F7"/>
<path d="M60.9843 23.1331C66.8495 20.329 70.611 20.0103 72.9061 19.819C75.3925 19.6279 76.2213 19.6279 76.9862 19.9465C77.8151 20.2653 78.5802 20.9026 79.0264 21.7947C79.4726 22.687 79.6639 23.8979 79.2177 24.9176C78.7713 25.9372 77.8151 26.8295 76.7313 27.1481C75.5838 27.4668 74.3087 27.2756 71.6948 27.5943C69.3359 27.9129 65.8296 28.614 60.9843 31.8006C60.9843 44.8016 60.9843 57.8029 60.9843 70.7403C60.9843 72.8434 59.2629 74.5641 57.1591 74.5641C55.0552 74.5641 53.3339 72.8434 53.3339 70.7403C53.3339 54.9988 53.3339 39.1934 53.3339 23.4517C53.3339 21.4124 54.9278 19.7554 56.9678 19.6279C59.0079 19.6279 60.7292 21.0936 60.9843 23.1331Z" fill="#6530F7"/>
<path d="M166.049 22.4947C167.388 17.7149 174.784 19.6269 173.445 24.5342C169.492 38.7461 165.539 53.022 161.587 67.2339C160.375 71.6314 156.359 74.6905 151.833 74.6905C147.242 74.6905 143.29 71.6314 142.078 67.2339C138.126 53.022 134.173 38.7461 130.284 24.5342C128.881 19.6269 136.34 17.7149 137.679 22.4947C141.632 36.7704 145.585 50.9825 149.474 65.2584C149.792 66.3418 150.749 67.1066 151.896 67.1066C153.044 67.1066 154 66.3418 154.319 65.2584C158.144 50.9825 162.097 36.7704 166.049 22.4947Z" fill="#6530F7"/>
<path d="M188.364 0C186.259 0 184.539 1.72078 184.539 3.82397C184.539 5.22608 184.539 6.56446 184.539 7.96659C184.539 10.0698 186.259 11.8543 188.364 11.8543C190.468 11.8543 192.188 10.1335 192.188 7.96659C192.188 6.56446 192.188 5.22608 192.188 3.82397C192.188 1.72078 190.468 0 188.364 0Z" fill="#6530F7"/>
<path d="M242.743 24.6603C247.142 39.1272 251.541 53.5942 255.94 68.0611C256.961 71.4389 259.83 74.1156 263.846 74.6254C263.783 74.8166 263.718 75.0079 263.654 75.1991C263.145 76.8561 262.444 79.0866 261.806 80.9986C261.169 82.9105 260.594 84.44 258.683 85.2686C256.77 86.0971 253.581 86.2245 251.032 85.9696C248.481 85.7146 246.696 85.0773 245.166 85.0773C243.636 85.0773 242.489 85.6509 241.788 86.7345C241.087 87.8178 240.958 89.4111 241.405 90.5582C241.851 91.7053 242.872 92.4064 244.848 92.9162C246.824 93.4262 249.82 93.7448 252.689 93.7448C255.557 93.8086 258.363 93.5536 260.722 92.6614C263.082 91.7691 265.058 90.2396 266.397 88.3914C267.799 86.5432 268.563 84.3127 269.074 82.8468C269.584 81.3809 269.838 80.6162 270.413 78.7043C270.986 76.8561 271.88 73.8607 286.862 24.6603C288.327 19.8167 280.996 17.6498 279.529 22.4296C275.13 36.8967 270.731 51.2999 266.332 65.7668C265.822 67.36 263.528 67.4238 263.017 65.8306C258.618 51.3636 254.219 36.8967 249.82 22.4296C249.182 20.3903 247.016 19.3067 245.039 19.8803C243.255 20.5176 242.106 22.6846 242.743 24.6603Z" fill="#6530F7"/>
<path d="M187.736 19.6943C185.632 19.6943 183.91 21.4152 183.91 23.5183C183.91 39.3236 183.91 55.0652 183.91 70.8705C183.91 72.9737 185.632 74.7582 187.736 74.7582C189.839 74.7582 191.561 73.0375 191.561 70.8705C191.561 55.0652 191.561 39.3236 191.561 23.5183C191.624 21.4152 189.904 19.6943 187.736 19.6943Z" fill="#6530F7"/>
<path d="M221.333 21.73C221.333 19.3082 221.333 16.8865 221.333 14.4647C221.333 14.146 221.333 13.1263 221.333 12.744C221.27 12.1067 221.013 11.5331 220.632 10.9595C219.931 9.93978 218.782 9.36621 217.509 9.36621C216.296 9.36621 215.149 9.93978 214.383 10.9595C214.002 11.5331 213.81 12.0429 213.682 12.744C213.619 13.0626 213.682 14.0823 213.682 14.4647C213.682 16.8865 213.682 19.3082 213.682 21.73C211.26 21.73 208.837 21.73 206.414 21.73C206.096 21.73 205.076 21.73 204.758 21.73C204.055 21.7937 203.482 22.0487 202.908 22.4311C201.889 23.1321 201.314 24.2793 201.314 25.5539C201.314 26.7648 201.889 27.9119 202.908 28.6768C203.482 29.0591 204.055 29.3141 204.758 29.3778C205.076 29.3778 206.096 29.3778 206.414 29.3778C208.837 29.3778 211.26 29.3778 213.682 29.3778C213.682 61.9444 213.682 64.6849 214.065 66.788C214.448 69.0187 215.149 70.5481 216.233 71.759C217.317 72.9062 218.847 73.671 220.441 74.1171C222.034 74.5633 223.756 74.6269 225.541 74.6906C227.325 74.6906 229.175 74.6906 230.832 74.5633C232.49 74.4358 233.829 74.3083 234.785 73.4797C235.741 72.7151 236.252 71.3129 236.06 70.0383C235.869 68.7637 234.976 67.6165 234.021 67.1067C233.126 66.5969 232.171 66.7242 230.577 66.8517C228.984 66.9792 226.688 67.1705 225.031 67.1067C223.436 67.043 222.544 66.788 222.034 66.2144C221.525 65.6408 221.396 64.876 221.396 63.7289C221.333 62.6455 221.333 61.2433 221.333 29.4416C223.756 29.4416 226.178 29.4416 228.601 29.4416C228.984 29.4416 230.003 29.4416 230.386 29.3778C231.024 29.3141 231.533 29.0591 232.107 28.6768C233.126 27.9757 233.701 26.8286 233.701 25.5539C233.701 24.343 233.126 23.1959 232.107 22.4311C231.598 22.0487 231.024 21.8575 230.386 21.73C230.003 21.6662 228.984 21.6662 228.601 21.6662C226.178 21.73 223.756 21.73 221.333 21.73Z" fill="#6530F7"/>
<path d="M448.551 65.5151C447.467 65.5151 446.255 65.8975 443.195 66.28C440.134 66.726 435.226 67.2359 431.145 67.1084C427.065 66.9809 423.814 66.2162 421.646 64.4318C419.48 62.6471 418.459 59.843 417.949 57.485C417.438 55.1907 417.438 53.4062 417.438 49.7098C429.105 49.7098 440.772 49.7098 452.376 49.7098C452.376 44.8025 452.376 41.2336 451.993 37.8557C451.61 34.4781 450.782 31.3552 448.869 28.3599C446.956 25.3645 443.896 22.5602 439.625 21.0308C435.354 19.5011 429.934 19.31 425.472 20.2659C420.945 21.222 417.375 23.325 414.952 26.1929C412.467 29.0609 411.128 32.7573 410.49 35.434C409.789 38.1107 409.789 39.8314 409.789 42.5082C409.789 45.1848 409.789 48.7538 409.789 51.4305C409.789 54.1071 409.789 55.9554 410.425 58.6959C411.063 61.4362 412.275 65.0689 414.634 67.9369C416.992 70.8048 420.499 72.8442 424.325 73.8639C428.213 74.8835 432.42 74.8198 436.564 74.6287C440.709 74.3737 444.853 73.9914 447.339 73.4816C449.825 73.0353 450.717 72.4618 451.292 71.8244C451.929 71.1871 452.247 70.3587 452.247 69.4664C452.247 68.5105 451.929 67.4271 451.228 66.6623C450.591 65.8975 449.633 65.5151 448.551 65.5151ZM424.898 28.3599C428.787 26.894 433.378 26.894 437.265 28.2961C441.155 29.6982 444.342 32.5661 444.598 41.9347C435.481 41.9347 426.364 41.9347 417.312 41.9347C417.693 32.8211 421.008 29.8256 424.898 28.3599Z" fill="#6530F7"/>
<path d="M582.755 42.315C582.755 37.344 582.755 34.2849 581.289 30.7159C579.822 27.147 576.953 23.0683 571.853 21.1563C566.753 19.1806 559.485 19.3081 549.923 22.176C549.923 17.1411 549.923 12.1702 549.923 7.13539C549.858 5.03227 548.138 3.31152 546.033 3.31152C543.929 3.31152 542.209 5.03227 542.209 7.13539C542.209 28.4217 542.209 49.6441 542.209 70.9303C542.209 73.0334 543.929 74.7543 546.033 74.7543C548.138 74.7543 549.858 73.0334 549.858 70.9303C549.858 57.4193 549.858 43.9082 549.858 30.3972C553.238 28.6765 559.167 27.3381 563.693 27.4018C568.22 27.4656 571.28 28.804 573 31.2258C574.658 33.6475 574.913 37.0254 575.041 38.9372C575.168 40.9129 575.168 41.4227 575.168 42.9523C575.168 44.4818 575.168 47.0948 575.168 70.9303C575.168 73.0334 576.89 74.7543 578.994 74.7543C581.097 74.7543 582.819 73.0334 582.819 70.9303C582.819 60.7334 582.819 50.6 582.819 40.4031" fill="#6530F7"/>
<path d="M395.062 73.2884C395.826 74.1805 396.847 74.7543 398.057 74.7543C398.887 74.7543 399.716 74.4993 400.417 73.9894C401.181 73.3521 401.692 72.4598 401.819 71.4402C401.947 70.4205 401.627 69.4645 401.054 68.6361C395.252 61.1795 389.451 53.7866 383.713 46.33C383.776 46.2663 383.841 46.1389 383.968 46.0752C389.642 39.4472 395.317 32.7554 400.989 26.1272C401.627 25.3626 401.947 24.3427 401.884 23.3231C401.819 22.3035 401.309 21.4111 400.608 20.7738C399.716 20.0092 398.758 19.8179 398.121 19.8179C396.973 19.8179 395.954 20.3277 395.252 21.1563C388.622 28.9952 381.928 36.7704 375.298 44.6093C375.298 32.1181 375.298 19.6267 375.298 7.13539C375.298 5.03227 373.576 3.31152 371.472 3.31152C369.369 3.31152 367.647 5.03227 367.647 7.13539C367.647 28.4217 367.647 49.6441 367.647 70.9303C367.647 73.0334 369.369 74.7543 371.472 74.7543C372.493 74.7543 373.448 74.3718 374.151 73.6069C374.915 72.8423 375.298 71.8862 375.298 70.8666C375.298 63.2187 375.298 55.5073 375.298 47.8597C381.8 56.2721 388.43 64.8121 395.062 73.2884Z" fill="#6530F7"/>
<path d="M353.048 20.9009C358.531 21.6656 357.384 29.3772 352.028 28.5486C343.549 27.2102 339.851 27.274 337.046 27.4015C331.436 27.6563 329.205 28.2298 328.504 30.8429C328.185 32.1813 328.248 33.9657 329.906 35.8777C331.563 37.7259 334.815 39.7016 339.405 42.2507C343.996 44.8 349.925 47.9866 352.985 52.0653C356.045 56.1443 356.237 61.1789 354.897 65.1303C353.558 69.0816 350.626 71.8858 347.056 73.3516C343.486 74.8174 339.214 74.8174 335.069 74.6262C330.99 74.4351 327.037 74.0526 321.554 73.5428C316.646 73.0967 317.475 65.3851 322.447 65.8951C330.289 66.6598 336.153 67.1696 340.106 66.9148C344.059 66.6598 346.035 65.5764 347.119 63.7919C348.203 62.0075 348.458 59.5219 347.374 57.3551C346.29 55.1882 343.932 53.4037 339.98 51.1732C336.027 48.9425 330.544 46.2659 326.846 43.3343C323.213 40.4025 321.363 37.3434 320.853 33.902C320.344 30.4606 321.236 26.7641 323.403 24.2148C325.635 21.6656 329.14 20.3909 333.922 19.8811C338.767 19.435 344.697 19.7536 353.048 20.9009Z" fill="#6530F7"/>
<path d="M477.879 21.73C477.879 19.3082 477.879 16.8865 477.879 14.4647C477.879 14.146 477.879 13.1263 477.879 12.744C477.814 12.1067 477.559 11.5331 477.176 10.9595C476.475 9.93978 475.328 9.36621 474.052 9.36621C472.842 9.36621 471.695 9.93978 470.929 10.9595C470.546 11.5331 470.354 12.0429 470.228 12.744C470.165 13.0626 470.228 14.0823 470.228 14.4647C470.228 16.8865 470.228 19.3082 470.228 21.73C467.805 21.73 465.383 21.73 462.96 21.73C462.64 21.73 461.621 21.73 461.302 21.73C460.601 21.7937 460.028 22.0487 459.454 22.4311C458.433 23.1321 457.86 24.2793 457.86 25.5539C457.86 26.7648 458.433 27.9119 459.454 28.6768C460.028 29.0591 460.601 29.3141 461.302 29.3778C461.621 29.3778 462.64 29.3778 462.96 29.3778C465.383 29.3778 467.805 29.3778 470.228 29.3778C470.228 61.9444 470.228 64.6849 470.611 66.788C470.992 69.0187 471.693 70.5481 472.777 71.759C473.861 72.9062 475.391 73.671 476.986 74.1171C478.58 74.5633 480.301 74.6269 482.086 74.6906C483.871 74.6906 485.719 74.6906 487.378 74.5633C489.034 74.4358 490.373 74.3083 491.33 73.4797C492.286 72.7151 492.796 71.3129 492.604 70.0383C492.414 68.7637 491.522 67.6165 490.565 67.1067C489.609 66.5969 488.716 66.7242 487.123 66.8517C485.528 66.9792 483.233 67.1705 481.575 67.1067C479.982 67.043 479.089 66.788 478.58 66.2144C478.069 65.6408 477.942 64.876 477.942 63.7289C477.879 62.6455 477.879 61.2433 477.879 29.4416C480.301 29.4416 482.724 29.4416 485.147 29.4416C485.528 29.4416 486.548 29.4416 486.931 29.3778C487.569 29.3141 488.079 29.0591 488.653 28.6768C489.672 27.9757 490.247 26.8286 490.247 25.5539C490.247 24.343 489.672 23.1959 488.653 22.4311C488.142 22.0487 487.569 21.8575 486.931 21.73C486.548 21.6662 485.528 21.6662 485.147 21.6662C482.724 21.73 480.301 21.73 477.879 21.73Z" fill="#6530F7"/>
<path d="M528.236 20.5202C525.177 20.0104 520.267 19.628 515.996 19.8829C511.724 20.2016 508.219 21.1575 505.285 23.388C502.416 25.6187 500.122 29.0602 498.846 32.2468C497.571 35.4334 497.253 38.4287 497.125 42.6987C496.998 46.905 496.998 52.3858 497.379 56.2733C497.826 60.161 498.655 62.4553 500.185 65.0046C501.715 67.5538 503.82 70.2942 506.752 72.0149C509.684 73.7358 513.382 74.3731 516.697 74.6279C519.949 74.8192 522.818 74.5642 525.367 74.3094C527.918 74.0544 530.086 73.8631 531.424 73.0985C532.826 72.3974 533.337 71.1228 533.337 69.8481C533.337 68.5735 532.7 67.2351 531.742 66.5978C530.787 65.9605 529.448 65.8967 527.6 66.1517C525.75 66.4067 523.264 66.9165 520.075 66.9803C516.825 67.044 512.872 66.5978 510.067 64.8133C507.325 63.0289 505.796 59.906 505.093 55.3812C504.393 50.8562 504.456 44.9292 504.902 40.6593C505.35 36.3255 506.177 33.6487 507.708 31.6094C509.238 29.57 511.469 28.2316 514.403 27.658C517.335 27.0845 521.033 27.2757 523.837 27.658C526.707 28.0405 528.747 28.5503 530.212 28.4228C531.679 28.2953 532.635 27.4669 533.081 26.3198C533.527 25.1725 533.527 23.643 532.891 22.6234C532.445 21.5398 531.296 21.03 528.236 20.5202Z" fill="#6530F7"/>
</g>
<defs>
<clipPath id="clip0_1220_13183">
<rect width="583" height="94" fill="white"/>
</clipPath>
</defs>
</svg>
