<svg width="278" height="278" viewBox="0 0 278 278" fill="none" xmlns="http://www.w3.org/2000/svg">
<path d="M107.985 261.268C105.361 265.036 104.024 269.096 102.84 273.279C114.274 276.325 126.289 277.95 138.682 277.95C148.484 277.95 158.049 276.936 167.277 275.004C183.729 271.562 194.756 263.46 208.499 254.758L212.302 246.349L203.609 210.272L171.01 207.831C171.01 207.831 171.197 209.44 170.467 210.001C170.143 210.251 167.313 211.406 167.313 211.406C158.419 214.962 148.712 216.918 138.547 216.918C137.789 216.918 137.033 216.904 136.281 216.883C134.583 225.609 129.647 233.538 124.556 241.466C119.666 249.062 113.146 253.673 107.985 261.268Z" fill="url(#paint0_linear_1220_13138)"/>
<path d="M0 139.474C0 203.574 43.6205 257.502 102.84 273.278C104.024 269.098 105.361 265.035 107.985 261.267C113.146 253.672 119.666 249.061 124.556 241.466C129.647 233.537 134.583 225.608 136.281 216.882C98.1182 215.786 66.8827 187.117 61.8407 150.129C39.896 148.678 19.8747 139.279 0.426508 128.554C0.143982 132.156 0 135.799 0 139.474Z" fill="#333333"/>
<path d="M78.9173 22.565C80.6369 19.0251 82.4217 15.5395 84.2364 12.0811C37.8912 31.8527 4.52318 76.0995 0.423828 128.554C19.872 139.28 39.896 148.679 61.838 150.13C61.3681 146.69 61.1209 143.18 61.1209 139.611C61.1209 116.576 71.213 95.8983 87.2192 81.7362C78.7326 62.8542 68.9583 42.9063 78.9146 22.565H78.9173Z" fill="url(#paint1_linear_1220_13138)"/>
<path d="M175.036 71.4146C169.424 54.1385 162.521 36.9926 165.577 18.2246C166.346 13.3691 167.658 8.77412 169.41 4.41237C159.527 2.17995 149.242 1 138.682 1C128.123 1 118.042 2.15554 108.246 4.34455C99.9356 6.20264 91.9081 8.80667 84.2364 12.0807C82.419 15.5392 80.6342 19.0248 78.9173 22.5646C68.9636 42.9059 78.7352 62.8539 87.2219 81.7358C100.884 69.6461 118.854 62.3032 138.547 62.3032C151.741 62.3032 164.164 65.6044 175.036 71.4146Z" fill="url(#paint2_linear_1220_13138)"/>
<path d="M277.365 139.475C277.365 73.541 231.215 18.3735 169.41 4.41211C167.658 8.77115 166.348 13.3689 165.577 18.2243C162.523 36.9923 169.426 54.1382 175.036 71.4144C199.396 84.4372 215.97 110.09 215.97 139.61C215.97 139.61 215.291 150.325 223.169 159.276C231.927 169.226 252.508 177.992 269.351 160.632C277.558 152.175 277.365 139.475 277.365 139.475Z" fill="#333333"/>
<path d="M166.935 275.102C166.935 275.102 191.928 271.847 213.389 255.571C239.612 235.686 242.728 200.236 215.291 173.382C167.413 126.523 110.158 67.5929 110.158 67.5929C110.158 67.5929 93.5924 52.2508 90.5987 39.9251C84.0788 13.071 111.788 3.57715 111.788 3.57715C111.788 3.57715 86.7954 7.9172 64.5193 22.5649C42.417 37.0986 27.981 72.6111 66.4209 110.993C104.861 149.376 167.478 210.815 167.478 210.815C167.478 210.815 185.449 228.218 188.125 241.737C192.743 265.065 166.935 275.102 166.935 275.102Z" fill="#333333"/>
<defs>
<linearGradient id="paint0_linear_1220_13138" x1="107.594" y1="237.151" x2="216.31" y2="249.916" gradientUnits="userSpaceOnUse">
<stop offset="0.19" stop-color="#333333"/>
<stop offset="0.7"/>
</linearGradient>
<linearGradient id="paint1_linear_1220_13138" x1="27.742" y1="121.781" x2="55.9558" y2="60.7599" gradientUnits="userSpaceOnUse">
<stop stop-color="#333333"/>
<stop offset="1"/>
</linearGradient>
<linearGradient id="paint2_linear_1220_13138" x1="90.0466" y1="41.8016" x2="174.542" y2="37.2149" gradientUnits="userSpaceOnUse">
<stop stop-color="#666666"/>
<stop offset="0.71" stop-color="#333333"/>
</linearGradient>
</defs>
</svg>
