<svg width="410" height="225" viewBox="0 0 410 225" fill="none" xmlns="http://www.w3.org/2000/svg">
<g clip-path="url(#clip0_1220_13213)">
<path d="M174.236 50.1136C174.029 47.1364 173.618 43.4363 171.935 39.9427C170.237 36.4492 167.266 33.1794 163.371 31.183C159.474 29.1867 154.668 28.4639 149.209 28.3607C143.768 28.2401 137.675 28.722 133.641 29.1006C129.606 29.4793 127.65 29.7719 126.191 30.2537C124.732 30.7356 123.805 31.4412 123.153 32.6459C122.501 33.8677 122.14 35.5887 122.69 37.1548C123.239 38.7209 124.681 40.0976 126.209 40.5795C127.719 41.0613 129.298 40.6655 132.594 40.1837C135.889 39.719 140.885 39.1854 145.999 39.1511C151.115 39.1339 156.333 39.6158 159.491 41.8186C162.65 44.0214 163.714 47.9452 163.714 60.5082C146.411 60.1469 139.786 61.0417 134.704 62.625C129.401 64.2771 125.78 66.6693 123.513 69.6638C121.248 72.6583 120.338 76.2722 120.046 80.6435C119.754 85.0148 120.081 90.1432 121.265 94.067C122.466 97.9908 124.526 100.675 127.753 102.913C130.981 105.15 135.358 106.905 141.313 106.974C147.099 107.043 154.358 105.511 163.73 99.6429C163.73 100.211 163.73 100.779 163.73 101.347C163.73 104.324 166.134 106.733 169.103 106.733C172.073 106.733 174.476 104.324 174.476 101.347C174.476 88.0265 174.476 74.7062 174.476 61.386C174.424 55.3798 174.424 53.1081 174.236 50.1136ZM163.679 86.8734C152.351 93.9293 148.266 95.1685 144.729 95.6675C141.039 96.1839 137.949 95.8913 135.7 94.9791C133.469 94.067 132.097 92.5353 131.427 90.0228C130.74 87.5273 130.74 84.051 130.894 81.3491C131.048 78.6472 131.358 76.6853 133.349 75.1364C135.34 73.5875 139.014 72.4345 143.494 71.8494C147.751 71.2987 152.711 71.2642 163.697 71.3848C163.679 76.5476 163.679 81.7105 163.679 86.8734Z" fill="#6530F7"/>
<path d="M191.457 210.902C189.93 210.886 188.196 211.419 183.837 212.039C179.476 212.658 172.491 213.381 166.654 213.209C160.835 213.037 156.184 211.952 153.112 209.388C150.056 206.824 148.579 202.796 147.858 199.509C147.121 196.223 147.121 193.693 147.121 188.41C163.702 188.41 180.301 188.41 196.881 188.41C196.881 181.405 196.881 176.277 196.315 171.476C195.749 166.673 194.598 162.2 191.835 157.932C189.089 153.664 184.712 149.619 178.67 147.468C172.628 145.317 164.904 145.041 158.501 146.401C152.099 147.76 147.018 150.737 143.516 154.834C140.014 158.93 138.109 164.161 137.148 168.016C136.186 171.871 136.186 174.333 136.186 178.118C136.186 181.904 136.186 187.016 136.186 190.87C136.186 194.726 136.186 197.342 137.062 201.247C137.938 205.154 139.671 210.334 143.018 214.413C146.382 218.475 151.36 221.417 156.853 222.863C162.346 224.308 168.353 224.257 174.275 223.931C180.197 223.603 186.067 222.984 189.604 222.295C193.156 221.624 194.41 220.884 195.268 219.955C196.143 219.026 196.641 217.907 196.624 216.565C196.624 215.222 196.127 213.639 195.2 212.555C194.341 211.504 192.986 210.937 191.457 210.902ZM157.746 157.896C163.324 155.781 169.83 155.797 175.357 157.827C180.884 159.859 185.45 163.92 185.828 177.309C172.868 177.309 159.926 177.309 146.967 177.309C147.55 164.264 152.184 160.013 157.746 157.896Z" fill="#6530F7"/>
<path d="M59.8162 31.0624C59.0267 29.4447 57.4475 28.1024 55.1817 28.1712C52.916 28.2228 49.9464 29.6857 49.5689 33.9364C41.2439 27.8098 32.095 27.5344 24.8686 28.6703C17.6593 29.8061 12.3554 32.3704 8.63064 36.0532C4.90586 39.736 2.72592 44.5547 1.54155 48.4269C0.357175 52.2819 0.168362 55.1902 0.0653727 60.1984C-0.0376164 65.2063 -0.0376164 72.2966 0.202692 77.2874C0.425835 82.2782 0.889286 85.1867 2.41696 89.0589C3.94463 92.9311 6.55369 97.7842 12.2181 101.656C17.7452 105.425 26.1732 108.23 49.7919 105.46C49.7919 109.607 49.7919 110.863 49.7919 111.999C49.7919 113.72 49.7919 115.183 49.2084 116.715C48.6247 118.246 47.4747 119.864 45.2777 120.931C43.0805 121.998 39.8363 122.549 36.2832 122.893C32.713 123.254 28.8337 123.427 24.9373 122.962C21.0408 122.497 17.1272 121.413 14.8958 120.294C12.6644 119.176 12.0979 118.023 11.48 116.818C10.8621 115.613 10.2098 114.374 9.14558 113.737C8.08136 113.101 6.60519 113.084 5.23199 113.497C3.8588 113.91 2.55428 114.77 1.83335 115.975C1.11243 117.179 0.940781 118.728 1.6617 120.828C2.38263 122.927 3.99612 125.594 6.75967 127.763C9.54037 129.931 13.4882 131.618 18.2772 132.617C23.0663 133.615 28.7135 133.942 33.9659 133.718C39.2356 133.494 44.1275 132.703 48.4187 131.085C52.71 129.467 56.3833 127.007 58.3229 122.893C60.2454 118.78 60.4341 113.032 60.52 108.867C60.6058 104.702 60.6058 102.121 60.6058 91.9845C60.6058 81.8481 60.6058 64.1738 60.6058 53.6586C60.6058 43.1435 60.6058 39.7877 60.6058 37.1546C60.6058 34.5559 60.6058 32.68 59.8162 31.0624ZM49.7919 94.3078C25.1775 97.8185 19.1526 94.2734 15.754 90.2807C12.2867 86.2193 11.5487 81.7275 11.171 76.5131C10.7934 71.2986 10.7934 65.344 10.7934 61.2309C10.7934 57.1178 10.7934 54.8117 11.7203 51.9376C12.6472 49.0637 14.501 45.6218 17.0243 43.3157C19.5646 41.0096 22.7744 39.8565 26.6538 39.2886C30.533 38.7034 35.0817 38.7034 38.7035 40.0286C42.3253 41.3538 45.0373 43.9868 46.7366 46.6715C48.4359 49.3563 49.1225 52.0753 49.4658 54.4675C49.8091 56.8424 49.8091 58.8732 49.8091 71.9008C49.7919 77.8555 49.7919 86.0816 49.7919 94.3078Z" fill="#6530F7"/>
<path d="M86.8293 32.9745C95.223 28.9647 100.544 28.5172 103.84 28.2763C107.341 28.0182 108.508 28.0182 109.659 28.4656C110.809 28.9131 111.924 29.8079 112.577 31.0987C113.246 32.3894 113.435 34.0759 112.851 35.556C112.268 37.0359 110.877 38.2923 109.264 38.7741C107.65 39.256 105.831 38.9807 102.072 39.4454C98.673 39.8756 93.7124 40.9081 86.8464 45.4859C86.8464 64.0207 86.8464 82.5727 86.8464 101.107C86.8464 104.102 84.4262 106.528 81.4396 106.528C78.4529 106.528 76.0326 104.102 76.0326 101.107C76.0326 78.5973 76.0326 56.0699 76.0326 33.5597C76.0326 30.6684 78.2812 28.2935 81.1649 28.1386C84.0315 27.9665 86.5203 30.1177 86.8293 32.9745Z" fill="#6530F7"/>
<path d="M236.411 32.0785C238.299 25.2808 248.873 27.9482 246.917 34.9869C241.286 55.3288 235.638 75.6533 230.009 95.9951C228.275 102.259 222.576 106.613 216.088 106.596C209.6 106.596 203.902 102.242 202.168 95.978C196.554 75.6533 190.958 55.3288 185.346 34.9869C183.389 27.9482 193.963 25.2635 195.851 32.0785C201.464 52.4203 207.059 72.7793 212.672 93.121C213.101 94.67 214.509 95.737 216.105 95.737C217.701 95.737 219.109 94.67 219.538 93.121C225.151 72.7793 230.781 52.4203 236.411 32.0785Z" fill="#6530F7"/>
<path d="M268.151 0C265.165 0 262.745 2.42656 262.745 5.42103C262.745 7.40015 262.745 9.36204 262.745 11.3411C262.745 14.3356 265.165 16.8483 268.151 16.8483C271.138 16.8483 273.558 14.4217 273.558 11.3411C273.558 9.36204 273.558 7.40015 273.558 5.42103C273.575 2.42656 271.155 0 268.151 0Z" fill="#6530F7"/>
<path d="M345.556 35.1591C351.839 55.8106 358.104 76.4622 364.386 97.131C365.845 101.984 369.879 105.736 375.664 106.527C375.577 106.786 375.509 107.061 375.423 107.354C374.702 109.728 373.689 112.929 372.78 115.631C371.87 118.333 371.046 120.519 368.352 121.706C365.656 122.894 361.073 123.049 357.486 122.687C353.899 122.326 351.306 121.448 349.178 121.414C347.049 121.379 345.35 122.223 344.389 123.772C343.428 125.32 343.221 127.575 343.839 129.226C344.458 130.862 345.917 131.894 348.749 132.618C351.581 133.34 355.803 133.788 359.924 133.839C364.026 133.891 368.026 133.563 371.39 132.308C374.771 131.051 377.535 128.849 379.491 126.181C381.448 123.513 382.598 120.347 383.319 118.23C384.057 116.113 384.383 115.012 385.207 112.344C386.014 109.677 387.301 105.409 408.586 35.1935C410.662 28.3269 400.244 25.1775 398.166 32.0269C391.919 52.6613 385.671 73.2785 379.423 93.9128C378.718 96.2189 375.441 96.2877 374.736 93.9988C368.455 73.3473 362.189 52.6957 355.906 32.0269C355.014 29.1186 351.942 27.5696 349.127 28.3785C346.277 29.239 344.663 32.3195 345.556 35.1591Z" fill="#6530F7"/>
<path d="M382.48 177.793C382.48 170.737 382.48 166.331 380.42 161.236C378.361 156.143 374.259 150.36 367.015 147.555C359.771 144.732 349.42 144.888 335.775 149.052C335.775 141.893 335.775 134.734 335.775 127.591C335.688 124.597 333.182 122.171 330.195 122.171C327.209 122.171 324.789 124.597 324.789 127.591C324.789 157.95 324.789 188.29 324.789 218.648C324.789 221.643 327.209 224.069 330.195 224.069C333.182 224.069 335.603 221.643 335.603 218.648C335.603 199.374 335.603 180.098 335.603 160.806C340.443 158.38 348.871 156.487 355.291 156.538C361.71 156.591 366.122 158.57 368.508 161.994C370.893 165.401 371.272 170.237 371.444 173.026C371.632 175.814 371.632 176.554 371.632 178.756C371.632 180.96 371.632 184.642 371.632 218.648C371.632 221.643 374.052 224.069 377.038 224.069C380.026 224.069 382.446 221.643 382.446 218.648C382.446 204.123 382.446 189.598 382.446 175.074" fill="#6530F7"/>
<path d="M115.291 222.022C116.338 223.313 117.883 224.121 119.565 224.121C120.784 224.121 121.9 223.708 122.878 222.985C124.011 222.091 124.732 220.8 124.903 219.337C125.058 217.874 124.663 216.497 123.771 215.361C115.531 204.743 107.292 194.143 99.053 183.523C99.1561 183.387 99.2762 183.249 99.3791 183.111C107.464 173.611 115.531 164.093 123.616 154.594C124.509 153.458 124.989 152.082 124.903 150.618C124.818 149.156 124.097 147.865 123.05 146.97C121.762 145.835 120.389 145.594 119.496 145.594C117.883 145.594 116.424 146.317 115.377 147.538C105.902 158.69 96.4097 169.843 86.9347 180.994C86.9347 163.164 86.9347 145.353 86.9347 127.524C86.9347 124.529 84.5144 122.103 81.5277 122.103C78.541 122.103 76.1207 124.529 76.1207 127.524C76.1207 157.881 76.1207 188.222 76.1207 218.579C76.1207 221.574 78.541 224.001 81.5277 224.001C82.9868 224.001 84.36 223.433 85.3211 222.383C86.3682 221.333 86.9347 219.956 86.9347 218.494C86.9347 207.531 86.9347 196.568 86.9347 185.607C96.3925 197.791 105.833 209.907 115.291 222.022Z" fill="#6530F7"/>
<path d="M267.27 28.1016C264.283 28.1016 261.863 30.5282 261.863 33.5227C261.863 56.0501 261.863 78.5603 261.863 101.088C261.863 104.082 264.283 106.595 267.27 106.595C270.256 106.595 272.676 104.168 272.676 101.088C272.676 78.5603 272.676 56.0501 272.676 33.5227C272.763 30.5282 270.342 28.1016 267.27 28.1016Z" fill="#6530F7"/>
<path d="M55.5217 147.281C63.3316 148.365 61.6838 159.345 54.097 158.174C42.03 156.298 36.7948 156.367 32.7954 156.557C24.7623 156.918 21.6039 157.762 20.6598 161.513C20.1964 163.389 20.2822 165.988 22.6338 168.672C24.9853 171.357 29.6198 174.094 36.1597 177.742C42.6823 181.391 51.1102 185.917 55.453 191.786C59.7957 197.636 60.0531 204.83 58.1308 210.44C56.2083 216.068 52.0887 220.129 46.9907 222.177C41.8756 224.225 35.7821 224.277 29.9289 224.018C24.0757 223.777 18.4799 223.244 10.6699 222.504C3.68379 221.851 4.86816 210.906 11.9573 211.577C23.0972 212.626 31.508 213.4 37.121 213.021C42.7338 212.643 45.5317 211.094 47.1109 208.53C48.69 205.965 49.0333 202.386 47.5056 199.323C45.978 196.259 42.5622 193.713 36.9493 190.511C31.3363 187.311 23.5092 183.49 18.3082 179.343C13.0902 175.195 10.4811 170.755 9.77732 165.868C9.07356 160.98 10.2923 155.645 13.4335 152.048C16.5574 148.451 21.6211 146.558 28.3841 145.87C35.1126 145.165 43.6092 145.646 55.5217 147.281Z" fill="#6530F7"/>
<path d="M315.107 31.029C315.107 27.5871 315.107 24.1452 315.107 20.686C315.107 20.187 315.124 18.7413 315.073 18.2422C314.953 17.2957 314.643 16.5041 314.094 15.7296C313.064 14.3012 311.433 13.458 309.683 13.458C307.933 13.458 306.284 14.3012 305.272 15.7296C304.723 16.5041 304.413 17.2957 304.293 18.2422C304.225 18.7413 304.259 20.187 304.259 20.686C304.259 24.1279 304.259 27.5699 304.259 31.029C300.826 31.029 297.393 31.029 293.942 31.029C293.496 31.029 292.038 31.0118 291.591 31.0634C290.612 31.1667 289.806 31.4765 289 32.0615C287.574 33.0941 286.734 34.7291 286.734 36.5016C286.734 38.2571 287.592 39.9091 289.016 40.9245C289.824 41.4924 290.63 41.8022 291.608 41.9055C292.038 41.9571 293.531 41.9399 293.96 41.9399C297.393 41.9399 300.826 41.9399 304.276 41.9399C304.276 88.4232 304.31 92.2953 304.774 95.3069C305.272 98.5252 306.284 100.728 307.846 102.363C309.408 103.998 311.537 105.099 313.819 105.702C316.085 106.321 318.506 106.476 321.046 106.51C323.586 106.545 326.265 106.476 328.582 106.321C330.899 106.166 332.872 105.943 334.229 104.807C335.584 103.688 336.323 101.675 336.048 99.8676C335.774 98.0433 334.468 96.4256 333.182 95.7028C331.877 94.98 330.589 95.1521 328.29 95.3758C326.006 95.5824 322.711 95.8233 320.428 95.7373C318.145 95.6512 316.875 95.2554 316.154 94.4638C315.433 93.6893 315.279 92.5362 315.21 90.8842C315.141 89.3352 315.141 87.339 315.124 41.9399C318.557 41.9399 321.99 41.9399 325.423 41.9399C325.973 41.9399 327.414 41.9571 327.946 41.8882C328.856 41.7678 329.611 41.458 330.35 40.9245C331.774 39.9091 332.615 38.2571 332.615 36.5016C332.615 34.7463 331.774 33.0941 330.35 32.0788C329.611 31.5453 328.839 31.2355 327.946 31.115C327.397 31.0463 325.955 31.0634 325.423 31.0634C321.973 31.029 318.54 31.029 315.107 31.029Z" fill="#6530F7"/>
<path d="M233.197 148.482C233.197 145.04 233.197 141.598 233.197 138.139C233.197 137.64 233.215 136.194 233.163 135.696C233.043 134.749 232.733 133.958 232.184 133.182C231.172 131.754 229.524 130.911 227.773 130.911C226.023 130.911 224.374 131.754 223.362 133.182C222.813 133.958 222.503 134.749 222.383 135.696C222.315 136.194 222.349 137.64 222.349 138.139C222.349 141.581 222.349 145.023 222.349 148.482C218.916 148.482 215.483 148.482 212.033 148.482C211.586 148.482 210.128 148.465 209.682 148.516C208.703 148.62 207.896 148.93 207.089 149.515C205.665 150.547 204.823 152.182 204.823 153.954C204.823 155.71 205.682 157.362 207.106 158.378C207.914 158.946 208.72 159.256 209.698 159.359C210.128 159.41 211.621 159.393 212.05 159.393C215.483 159.393 218.916 159.393 222.367 159.393C222.367 205.877 222.401 209.748 222.865 212.76C223.362 215.978 224.374 218.181 225.936 219.816C227.499 221.451 229.626 222.552 231.91 223.154C234.175 223.774 236.596 223.929 239.137 223.963C241.677 223.998 244.354 223.929 246.672 223.774C248.989 223.62 250.963 223.395 252.319 222.26C253.675 221.141 254.413 219.127 254.139 217.321C253.864 215.496 252.559 213.878 251.272 213.156C249.967 212.433 248.679 212.605 246.38 212.829C244.097 213.035 240.802 213.276 238.518 213.19C236.235 213.104 234.965 212.708 234.244 211.917C233.523 211.143 233.369 209.989 233.3 208.337C233.231 206.788 233.231 204.792 233.215 159.393C236.648 159.393 240.081 159.393 243.514 159.393C244.063 159.393 245.505 159.41 246.036 159.341C246.947 159.221 247.701 158.911 248.44 158.378C249.864 157.362 250.706 155.71 250.706 153.954C250.706 152.2 249.864 150.547 248.44 149.532C247.701 148.998 246.929 148.688 246.036 148.568C245.487 148.5 244.045 148.516 243.514 148.516C240.063 148.482 236.63 148.482 233.197 148.482Z" fill="#6530F7"/>
<path d="M304.847 146.729C300.504 146.042 293.466 145.422 287.425 145.835C281.383 146.248 276.319 147.676 272.182 150.86C268.046 154.026 264.852 158.949 263.051 163.544C261.231 168.138 260.801 172.389 260.596 178.43C260.39 184.47 260.39 192.3 260.991 197.86C261.591 203.419 262.81 206.688 264.939 210.302C267.067 213.916 270.122 217.874 274.294 220.317C278.464 222.762 283.751 223.725 288.421 224.019C293.089 224.311 297.157 223.95 300.744 223.605C304.332 223.261 307.456 222.951 309.412 221.919C311.369 220.886 312.177 219.131 312.142 217.324C312.108 215.516 311.233 213.64 309.876 212.677C308.503 211.73 306.649 211.696 303.972 212.04C301.294 212.385 297.809 213.125 293.226 213.194C288.626 213.263 282.928 212.677 279.013 210.147C275.1 207.6 272.972 203.109 271.959 196.655C270.946 190.201 271.049 181.769 271.702 175.607C272.354 169.446 273.538 165.557 275.718 162.649C277.898 159.74 281.073 157.795 285.278 156.97C289.484 156.143 294.685 156.419 298.753 156.934C302.804 157.451 305.722 158.191 307.833 157.984C309.962 157.795 311.3 156.66 311.936 155.008C312.588 153.355 312.537 151.187 311.679 149.707C310.854 148.193 309.189 147.418 304.847 146.729Z" fill="#6530F7"/>
</g>
<defs>
<clipPath id="clip0_1220_13213">
<rect width="410" height="224.5" fill="white"/>
</clipPath>
</defs>
</svg>
