<svg preserveAspectRatio="none" width="100%" height="100%" overflow="visible" style="display: block;" viewBox="0 0 51.9076 78.4236" fill="none" xmlns="http://www.w3.org/2000/svg">
<path id="Vector" d="M44.3749 1.02699C40.0317 0.339692 32.994 -0.279875 26.9531 0.132754C20.9109 0.545382 15.8467 1.97391 11.7104 5.1583C7.574 8.32387 4.38051 13.2466 2.57876 17.8419C0.759468 22.436 0.329416 26.6865 0.123789 32.7279C-0.0818378 38.7681 -0.0818347 46.598 0.518746 52.1578C1.11933 57.7164 2.33803 60.9861 4.46702 64.5994C6.59475 68.214 9.65034 72.1722 13.8218 74.6153C17.992 77.0597 23.2794 78.023 27.9486 78.3164C32.6166 78.6087 36.6852 78.2475 40.2724 77.9026C43.8596 77.5589 46.9841 77.2491 48.9401 76.2169C50.8973 75.1835 51.7048 73.4289 51.6697 71.6216C51.6358 69.8143 50.7607 67.938 49.404 66.9748C48.0311 66.0279 46.1767 65.994 43.4998 66.3377C40.8216 66.6826 37.3372 67.4226 32.7545 67.4915C28.1542 67.5605 22.4556 66.9748 18.5412 64.4451C14.628 61.8978 12.5003 57.4066 11.4872 50.9525C10.4741 44.4985 10.5769 36.0666 11.2302 29.9047C11.8821 23.7441 13.0657 19.8549 15.2461 16.9464C17.4265 14.038 20.6012 12.0927 24.8065 11.2675C29.0118 10.4409 34.2127 10.7169 38.2814 11.2323C42.3325 11.7491 45.2501 12.489 47.3616 12.2821C49.4905 12.0927 50.8284 10.9577 51.464 9.3059C52.116 7.65288 52.0646 5.48438 51.207 4.00444C50.382 2.49063 48.7169 1.71554 44.3749 1.02699Z" fill="var(--fill-0, white)"/>
</svg>
