<svg preserveAspectRatio="none" width="100%" height="100%" overflow="visible" style="display: block;" viewBox="0 0 57.6909 101.898" fill="none" xmlns="http://www.w3.org/2000/svg">
<path id="Vector" d="M57.6909 55.6218C57.6909 48.5657 57.6909 44.1598 55.6308 39.0653C53.5721 33.972 49.4696 28.1889 42.2263 25.3846C34.9817 22.5614 24.6313 22.7169 10.986 26.8808C10.986 19.7219 10.986 12.563 10.986 5.42036C10.8995 2.42648 8.3931 0 5.4065 0C2.41989 0 0 2.42648 0 5.42036C0 35.7793 0 66.1194 0 96.477C0 99.4721 2.41989 101.898 5.4065 101.898C8.3931 101.898 10.8142 99.4721 10.8142 96.477C10.8142 77.2027 10.8142 57.927 10.8142 38.6351C15.654 36.2095 24.0822 34.3156 30.5017 34.3671C36.9213 34.4197 41.3335 36.3988 43.7195 39.8228C46.1043 43.2304 46.483 48.0666 46.6547 50.8546C46.8428 53.6427 46.8428 54.3827 46.8428 56.585C46.8428 58.7886 46.8428 62.4709 46.8428 96.477C46.8428 99.4721 49.2627 101.898 52.2493 101.898C55.2372 101.898 57.657 99.4721 57.657 96.477C57.657 81.9523 57.657 67.4275 57.657 52.9027" fill="var(--fill-0, white)"/>
</svg>
