<svg preserveAspectRatio="none" width="100%" height="100%" overflow="visible" style="display: block;" viewBox="0 0 54.6453 78.5729" fill="none" xmlns="http://www.w3.org/2000/svg">
<path id="Vector" d="M49.5268 1.72591C57.3367 2.81079 55.689 13.79 48.1021 12.6198C36.0352 10.7435 30.8 10.8125 26.8005 11.0019C18.7674 11.3631 15.609 12.2072 14.6649 15.9585C14.2015 17.8347 14.2874 20.4334 16.6389 23.1174C18.9905 25.8026 23.625 28.5392 30.1648 32.1877C36.6874 35.8361 45.1154 40.3625 49.4581 46.2308C53.8008 52.0816 54.0583 59.2757 52.1359 64.8857C50.2134 70.5132 46.0938 74.5743 40.9958 76.6224C35.8807 78.6705 29.7873 78.7219 23.934 78.4635C18.0808 78.2227 12.485 77.6897 4.67502 76.9497C-2.31108 76.2963 -1.12671 65.351 5.96238 66.022C17.1023 67.0717 25.5131 67.8456 31.1261 67.4668C36.7389 67.088 39.5369 65.5391 41.116 62.9755C42.6951 60.4107 43.0384 56.8313 41.5107 53.7685C39.9831 50.7045 36.5673 48.1585 30.9544 44.9566C25.3415 41.7559 17.5143 37.9356 12.3134 33.788C7.09532 29.6404 4.4862 25.2006 3.78245 20.313C3.07869 15.4254 4.29739 10.0901 7.43862 6.49309C10.5625 2.89607 15.6262 1.0035 22.3892 0.314948C29.1177 -0.389906 37.6144 0.0917026 49.5268 1.72591Z" fill="var(--fill-0, white)"/>
</svg>
