<svg preserveAspectRatio="none" width="100%" height="100%" overflow="visible" style="display: block;" viewBox="0 0 54.5299 78.6347" fill="none" xmlns="http://www.w3.org/2000/svg">
<path id="Vector" d="M54.2905 21.7718C54.0836 18.7946 53.6723 15.0945 51.9897 11.6009C50.2908 8.10739 47.3205 4.83759 43.4248 2.84117C39.528 0.844875 34.722 0.122084 29.2629 0.0188637C23.8226 -0.101664 17.729 0.380196 13.6954 0.758836C9.66063 1.13748 7.70467 1.43008 6.24522 1.91194C4.78639 2.3938 3.85945 3.09941 3.20721 4.30406C2.55497 5.52589 2.1945 7.24689 2.7438 8.81299C3.2931 10.3791 4.73486 11.7558 6.26277 12.2377C7.77363 12.7195 9.35219 12.3237 12.6485 11.8419C15.9435 11.3772 20.9388 10.8437 26.0531 10.8093C31.1687 10.7921 36.3871 11.274 39.5455 13.4768C42.7039 15.6796 43.7684 19.6034 43.7684 32.1664C26.4656 31.8051 19.8404 32.6999 14.7587 34.2832C9.455 35.9354 5.83397 38.3275 3.56768 41.322C1.3019 44.3165 0.392255 47.9304 0.100365 52.3017C-0.1914 56.673 0.13472 61.8014 1.31908 65.7252C2.52062 69.649 4.58039 72.3337 7.80748 74.5709C11.0348 76.8083 15.4119 78.5636 21.3676 78.6325C27.1527 78.7014 34.4124 77.1696 43.7847 71.3011C43.7847 71.869 43.7847 72.4371 43.7847 73.0049C43.7847 75.9821 46.1882 78.3916 49.1573 78.3916C52.1276 78.3916 54.5299 75.9821 54.5299 73.0049C54.5299 59.6847 54.5299 46.3644 54.5299 33.0442C54.4785 27.038 54.4785 24.7663 54.2905 21.7718ZM43.7333 58.5316C32.405 65.5875 28.32 66.8267 24.783 67.3257C21.093 67.8421 18.0036 67.5495 15.7542 66.6373C13.5237 65.7252 12.1507 64.1935 11.4812 61.681C10.7941 59.1855 10.7941 55.7092 10.9483 53.0073C11.1025 50.3054 11.4122 48.3436 13.4033 46.7946C15.3944 45.2457 19.0681 44.0927 23.548 43.5076C27.8047 42.9569 32.7648 42.9224 43.7508 43.043C43.7333 48.2058 43.7333 53.3687 43.7333 58.5316Z" fill="var(--fill-0, white)"/>
</svg>
