<svg preserveAspectRatio="none" width="100%" height="100%" overflow="visible" style="display: block;" viewBox="0 0 60.6058 105.64" fill="none" xmlns="http://www.w3.org/2000/svg">
<path id="Vector" d="M59.8162 2.91688C59.0267 1.29923 57.4475 -0.0431324 55.1817 0.0257226C52.916 0.0772698 49.9464 1.54016 49.5689 5.79086C41.2439 -0.335737 32.095 -0.611156 24.8686 0.524764C17.6593 1.66056 12.3554 4.22488 8.63064 7.90768C4.90586 11.5905 2.72592 16.4092 1.54155 20.2814C0.357175 24.1364 0.168362 27.0447 0.0653727 32.0528C-0.0376164 37.0608 -0.0376164 44.1511 0.202692 49.1419C0.425835 54.1327 0.889286 57.0412 2.41696 60.9134C3.94463 64.7856 6.55369 69.6387 12.2181 73.5108C17.7452 77.2797 26.1732 80.0849 49.7919 77.3142C49.7919 81.4617 49.7919 82.718 49.7919 83.8538C49.7919 85.5748 49.7919 87.0377 49.2084 88.5693C48.6247 90.1009 47.4747 91.7187 45.2777 92.7856C43.0805 93.8527 39.8363 94.4033 36.2832 94.7475C32.713 95.1089 28.8337 95.2811 24.9373 94.8164C21.0408 94.3517 17.1272 93.2675 14.8958 92.1489C12.6644 91.0302 12.0979 89.8771 11.48 88.6725C10.8621 87.4679 10.2098 86.2287 9.14558 85.592C8.08136 84.9552 6.60519 84.938 5.23199 85.351C3.8588 85.764 2.55428 86.6245 1.83335 87.8293C1.11243 89.034 0.940781 90.5828 1.6617 92.6824C2.38263 94.7819 3.99612 97.4488 6.75967 99.6173C9.54037 101.786 13.4882 103.473 18.2772 104.471C23.0663 105.469 28.7135 105.797 33.9659 105.572C39.2356 105.349 44.1275 104.558 48.4187 102.94C52.71 101.322 56.3833 98.861 58.3229 94.7475C60.2454 90.6344 60.4341 84.8863 60.52 80.7217C60.6058 76.5569 60.6058 73.9755 60.6058 63.839C60.6058 53.7025 60.6058 36.0282 60.6058 25.5131C60.6058 14.998 60.6058 11.6422 60.6058 9.00911C60.6058 6.41043 60.6058 4.53453 59.8162 2.91688ZM49.7919 66.1623C25.1775 69.673 19.1526 66.1279 15.754 62.1352C12.2867 58.0738 11.5487 53.582 11.171 48.3676C10.7934 43.153 10.7934 37.1985 10.7934 33.0854C10.7934 28.9723 10.7934 26.6662 11.7203 23.7921C12.6472 20.9181 14.501 17.4763 17.0243 15.1702C19.5646 12.8641 22.7744 11.711 26.6538 11.1431C30.533 10.5579 35.0817 10.5579 38.7035 11.8831C42.3253 13.2083 45.0373 15.8413 46.7366 18.526C48.4359 21.2107 49.1225 23.9298 49.4658 26.3219C49.8091 28.6969 49.8091 30.7277 49.8091 43.7553C49.7919 49.71 49.7919 57.9361 49.7919 66.1623Z" fill="var(--fill-0, white)"/>
</svg>
