<svg preserveAspectRatio="none" width="100%" height="100%" overflow="visible" style="display: block;" viewBox="0 0 65.3695 105.679" fill="none" xmlns="http://www.w3.org/2000/svg">
<path id="Vector" d="M2.06767 6.99409C8.35058 27.6456 14.6159 48.2972 20.8976 68.966C22.357 73.8191 26.3906 77.5707 32.1757 78.3624C32.0892 78.6206 32.0203 78.8959 31.935 79.1885C31.2141 81.5635 30.201 84.7644 29.2919 87.4663C28.3817 90.1682 27.5579 92.3539 24.8634 93.5413C22.1677 94.7288 17.585 94.8837 13.9978 94.5222C10.4106 94.1609 7.81771 93.2832 5.68998 93.2487C3.56099 93.2144 1.86205 94.0576 0.900365 95.6065C-0.0600634 97.1554 -0.266929 99.4096 0.351205 101.061C0.96934 102.697 2.42877 103.729 5.26116 104.453C8.09229 105.175 12.3152 105.623 16.4352 105.674C20.5378 105.726 24.5374 105.398 27.9014 104.143C31.283 102.886 34.0464 100.684 36.0024 98.0162C37.9596 95.3484 39.1094 92.1818 39.8303 90.065C40.5688 87.9482 40.8948 86.8467 41.7186 84.1793C42.526 81.5118 43.8125 77.2438 65.0974 7.02845C67.1737 0.161891 56.7557 -2.98751 54.6781 3.86187C48.4303 24.4963 42.1825 45.1134 35.9347 65.7478C35.23 68.0538 31.9525 68.1227 31.2479 65.8338C24.9662 45.1823 18.7009 24.5307 12.418 3.86187C11.5253 0.953533 8.45342 -0.595392 5.63859 0.213435C2.78865 1.07394 1.17495 4.15448 2.06767 6.99409Z" fill="var(--fill-0, white)"/>
</svg>
