<svg preserveAspectRatio="none" width="100%" height="100%" overflow="visible" style="display: block;" viewBox="0 0 277.365 276.95" fill="none" xmlns="http://www.w3.org/2000/svg">
<g id="Group">
<path id="Vector" d="M107.985 260.267C105.361 264.035 104.024 268.096 102.84 272.279C114.274 275.325 126.289 276.95 138.683 276.95C148.484 276.95 158.049 275.935 167.277 274.004C183.729 270.562 194.756 262.459 208.499 253.757L212.302 245.349L203.609 209.272L171.01 206.831C171.01 206.831 171.198 208.439 170.467 209.001C170.143 209.25 167.313 210.406 167.313 210.406C158.419 213.962 148.712 215.918 138.547 215.918C137.789 215.918 137.034 215.904 136.281 215.882C134.583 224.609 129.647 232.537 124.556 240.466C119.666 248.061 113.146 252.672 107.985 260.267Z" fill="url(#paint0_linear_1217_13012)"/>
<path id="Vector_2" d="M0 138.475C0 202.575 43.6205 256.502 102.84 272.279C104.024 268.099 105.361 264.035 107.985 260.267C113.146 252.672 119.666 248.061 124.556 240.466C129.647 232.537 134.583 224.609 136.281 215.882C98.1182 214.786 66.8827 186.118 61.8407 149.13C39.896 147.678 19.8747 138.279 0.426508 127.554C0.143982 131.156 0 134.799 0 138.475Z" fill="var(--fill-0, #6530F7)"/>
<path id="Vector_3" d="M78.9173 21.5646C80.6369 18.0248 82.4217 14.5392 84.2364 11.0807C37.8912 30.8523 4.52314 75.0992 0.423789 127.554C19.8719 138.279 39.896 147.678 61.838 149.13C61.368 145.69 61.1208 142.18 61.1208 138.61C61.1208 115.576 71.213 94.8979 87.2192 80.7358C78.7325 61.8539 68.9582 41.9059 78.9146 21.5646H78.9173Z" fill="url(#paint1_linear_1217_13012)"/>
<path id="Vector_4" d="M175.036 70.4146C169.424 53.1385 162.521 35.9926 165.577 17.2246C166.346 12.3691 167.658 7.77412 169.41 3.41237C159.527 1.17995 149.242 0 138.683 0C128.123 0 118.042 1.15554 108.246 3.34455C99.9356 5.20264 91.9081 7.80667 84.2364 11.0807C82.419 14.5392 80.6342 18.0248 78.9173 21.5646C68.9637 41.9059 78.7353 61.8539 87.2219 80.7358C100.884 68.6461 118.854 61.3032 138.547 61.3032C151.741 61.3032 164.164 64.6044 175.036 70.4146Z" fill="url(#paint2_linear_1217_13012)"/>
<path id="Vector_5" d="M277.365 138.475C277.365 72.5413 231.215 17.3738 169.41 3.41237C167.658 7.7714 166.348 12.3691 165.577 17.2246C162.523 35.9926 169.426 53.1385 175.036 70.4146C199.396 83.4375 215.97 109.09 215.97 138.61C215.97 138.61 215.291 149.325 223.169 158.276C231.927 168.226 252.508 176.993 269.351 159.633C277.558 151.175 277.365 138.475 277.365 138.475Z" fill="var(--fill-0, #6530F7)"/>
</g>
<defs>
<linearGradient id="paint0_linear_1217_13012" x1="107.594" y1="236.15" x2="216.31" y2="248.915" gradientUnits="userSpaceOnUse">
<stop offset="0.3" stop-color="#6530F7"/>
<stop offset="0.81" stop-color="#3D169C"/>
</linearGradient>
<linearGradient id="paint1_linear_1217_13012" x1="27.7419" y1="120.781" x2="55.9557" y2="59.7596" gradientUnits="userSpaceOnUse">
<stop stop-color="#6530F7"/>
<stop offset="1" stop-color="#3D169C"/>
</linearGradient>
<linearGradient id="paint2_linear_1217_13012" x1="90.0467" y1="40.8016" x2="174.542" y2="36.2149" gradientUnits="userSpaceOnUse">
<stop stop-color="#9885FF"/>
<stop offset="0.71" stop-color="#6530F7"/>
</linearGradient>
</defs>
</svg>
