<svg preserveAspectRatio="none" width="100%" height="100%" overflow="visible" style="display: block;" viewBox="0 0 49.3709 93.0611" fill="none" xmlns="http://www.w3.org/2000/svg">
<path id="Vector" d="M28.3727 17.5709C28.3727 14.1291 28.3727 10.6872 28.3727 7.22802C28.3727 6.72898 28.3903 5.28328 28.3389 4.78423C28.2185 3.8377 27.9088 3.04605 27.3597 2.27159C26.3303 0.843192 24.699 0 22.9487 0C21.1984 0 19.5496 0.843192 18.5378 2.27159C17.9886 3.04605 17.6789 3.8377 17.5585 4.78423C17.4908 5.28328 17.5247 6.72898 17.5247 7.22802C17.5247 10.6699 17.5247 14.1119 17.5247 17.5709C14.0917 17.5709 10.6587 17.5709 7.20822 17.5709C6.76186 17.5709 5.30366 17.5538 4.8573 17.6054C3.87806 17.7087 3.07185 18.0184 2.26565 18.6035C0.840051 19.6361 0 21.2711 0 23.0436C0 24.7991 0.857605 26.4511 2.28195 27.4665C3.08941 28.0344 3.89562 28.3442 4.8736 28.4475C5.30366 28.4991 6.79697 28.4819 7.22578 28.4819C10.6587 28.4819 14.0917 28.4819 17.5422 28.4819C17.5422 74.9652 17.5761 78.8373 18.04 81.8489C18.5378 85.0672 19.5496 87.27 21.1119 88.9049C22.6741 90.5398 24.8031 91.6413 27.0851 92.2437C29.3507 92.8631 31.7718 93.018 34.3121 93.0525C36.8523 93.0869 39.5305 93.018 41.8476 92.8631C44.1646 92.7082 46.1381 92.4846 47.4948 91.3487C48.8502 90.2301 49.5887 88.2166 49.3141 86.4095C49.0395 84.5853 47.7343 82.9676 46.4479 82.2448C45.1426 81.522 43.8549 81.694 41.5554 81.9178C39.2722 82.1244 35.9772 82.3653 33.694 82.2793C31.4108 82.1932 30.1406 81.7974 29.4197 81.0058C28.6987 80.2313 28.5445 79.0782 28.4756 77.4262C28.4066 75.8772 28.4066 73.8809 28.3903 28.4819C31.8233 28.4819 35.2562 28.4819 38.6892 28.4819C39.2384 28.4819 40.6803 28.4991 41.2119 28.4302C42.1222 28.3098 42.877 28 43.6155 27.4665C45.0398 26.4511 45.8811 24.7991 45.8811 23.0436C45.8811 21.2882 45.0398 19.6361 43.6155 18.6208C42.877 18.0873 42.1046 17.7775 41.2119 17.657C40.6627 17.5883 39.2208 17.6054 38.6892 17.6054C35.2387 17.5709 31.8057 17.5709 28.3727 17.5709Z" fill="var(--fill-0, white)"/>
</svg>
