<svg preserveAspectRatio="none" width="100%" height="100%" overflow="visible" style="display: block;" viewBox="0 0 48.8153 102.019" fill="none" xmlns="http://www.w3.org/2000/svg">
<path id="Vector" d="M39.1703 99.9194C40.2174 101.21 41.7622 102.019 43.4443 102.019C44.663 102.019 45.7788 101.605 46.7572 100.883C47.89 99.9884 48.6109 98.6978 48.7826 97.2342C48.9371 95.7718 48.5422 94.3947 47.6498 93.2584C39.4107 82.6405 31.1714 72.04 22.9323 61.4208C23.0354 61.2841 23.1555 61.1461 23.2584 61.0082C31.3431 51.5089 39.4105 41.9909 47.4953 32.4917C48.3878 31.3554 48.8685 29.9795 48.7826 28.5159C48.6968 27.0535 47.9759 25.7629 46.9288 24.8675C45.6414 23.7324 44.2682 23.4916 43.3756 23.4916C41.7622 23.4916 40.3031 24.214 39.2561 25.4356C29.781 36.5879 20.289 47.7401 10.814 58.8911C10.814 41.0616 10.814 23.2508 10.814 5.42124C10.814 2.42648 8.39372 0 5.40699 0C2.42025 0 0 2.42648 0 5.42124C0 35.7789 0 66.119 0 96.4767C0 99.4717 2.42025 101.899 5.40699 101.899C6.86606 101.899 8.23924 101.33 9.20042 100.281C10.2475 99.2309 10.814 97.8538 10.814 96.3914C10.814 85.4285 10.814 74.4656 10.814 63.504C20.2718 75.6885 29.7125 87.804 39.1703 99.9194Z" fill="var(--fill-0, white)"/>
</svg>
