<svg preserveAspectRatio="none" width="100%" height="100%" overflow="visible" style="display: block;" viewBox="0 0 191.977 271.524" fill="none" xmlns="http://www.w3.org/2000/svg">
<path id="Vector" d="M124.406 271.524C124.406 271.524 149.398 268.269 170.86 251.994C197.083 232.109 200.199 196.659 172.761 169.805C124.884 122.946 67.6288 64.0158 67.6288 64.0158C67.6288 64.0158 51.0629 48.6737 48.0692 36.3479C41.5494 9.49386 69.2587 0 69.2587 0C69.2587 0 44.266 4.34005 21.9899 18.9877C-0.112406 33.5215 -14.5484 69.0339 23.8915 107.416C62.3314 145.799 124.949 207.237 124.949 207.237C124.949 207.237 142.919 224.641 145.595 238.16C150.213 261.488 124.406 271.524 124.406 271.524Z" fill="var(--fill-0, #6530F7)"/>
</svg>
