<svg preserveAspectRatio="none" width="100%" height="100%" overflow="visible" style="display: block;" viewBox="0 0 49.3722 93.0611" fill="none" xmlns="http://www.w3.org/2000/svg">
<path id="Vector" d="M28.374 17.5712C28.374 14.1285 28.374 10.687 28.374 7.2279C28.374 6.72873 28.3916 5.28265 28.3402 4.78474C28.2198 3.83782 27.9101 3.04643 27.3609 2.27134C26.3491 0.842821 24.7003 0 22.95 0C21.1996 0 19.5509 0.842821 18.539 2.27134C17.9899 3.04643 17.6802 3.83782 17.5598 4.78474C17.4921 5.28265 17.5259 6.72873 17.5259 7.2279C17.5259 10.6694 17.5259 14.1121 17.5259 17.5712C14.093 17.5712 10.66 17.5712 7.20948 17.5712C6.76312 17.5712 5.30492 17.5536 4.85856 17.6051C3.87933 17.7092 3.07313 18.0189 2.26567 18.6034C0.841323 19.6356 0 21.2711 0 23.0432C0 24.7991 0.858867 26.4509 2.28321 27.4668C3.09067 28.0349 3.89688 28.3447 4.87486 28.4475C5.30492 28.499 6.79824 28.4814 7.22704 28.4814C10.66 28.4814 14.093 28.4814 17.5435 28.4814C17.5435 74.9654 17.5773 78.8371 18.0413 81.8484C18.539 85.0667 19.5509 87.2703 21.1131 88.9045C22.6754 90.54 24.8031 91.6412 27.0863 92.2432C29.352 92.8627 31.7731 93.0183 34.3134 93.0521C36.8536 93.0872 39.5305 93.0183 41.8488 92.8627C44.1659 92.7085 46.1394 92.484 47.4961 91.3489C48.8514 90.2302 49.5899 88.216 49.3154 86.4099C49.0408 84.5851 47.7355 82.9672 46.4491 82.2448C45.1439 81.5224 43.8562 81.6942 41.5567 81.9174C39.2735 82.1244 35.9784 82.3652 33.6952 82.2786C31.412 82.1933 30.1419 81.797 29.421 81.0056C28.7 80.2318 28.5458 79.0779 28.4768 77.4262C28.4079 75.8772 28.4079 73.8806 28.3916 28.4814C31.8245 28.4814 35.2575 28.4814 38.6905 28.4814C39.2396 28.4814 40.6815 28.499 41.2132 28.43C42.1234 28.3096 42.8782 27.9998 43.6167 27.4668C45.0411 26.4509 45.8824 24.7991 45.8824 23.0432C45.8824 21.2886 45.0411 19.6356 43.6167 18.621C42.8782 18.0867 42.1059 17.7769 41.2132 17.6565C40.664 17.5888 39.2221 17.6051 38.6905 17.6051C35.2399 17.5712 31.807 17.5712 28.374 17.5712Z" fill="var(--fill-0, white)"/>
</svg>
