<svg preserveAspectRatio="none" width="100%" height="100%" overflow="visible" style="display: block;" viewBox="0 0 60.695 78.5508" fill="none" xmlns="http://www.w3.org/2000/svg">
<path id="Vector" d="M55.271 65.3329C53.7439 65.3166 52.0098 65.8496 47.6503 66.4692C43.2895 67.0888 36.3044 67.8112 30.4679 67.6393C24.6489 67.4675 19.9972 66.3827 16.9254 63.8191C13.8698 61.2543 12.3928 57.2271 11.6718 53.9398C10.9346 50.6539 10.9346 48.1242 10.9346 42.8403C27.5151 42.8403 44.1145 42.8403 60.695 42.8403C60.695 35.8356 60.695 30.7072 60.1283 25.9062C59.5628 21.1039 58.4118 16.6302 55.6484 12.3622C52.9025 8.09418 48.5254 4.04942 42.4833 1.89849C36.4411 -0.252448 28.7176 -0.528376 22.3143 0.831165C15.9123 2.19071 10.8318 5.16816 7.32985 9.26435C3.82792 13.3605 1.92212 18.5918 0.961689 22.4471C7.39863e-06 26.3013 0 28.7632 0 32.5484C0 36.3348 0 41.4469 0 45.301C0 49.1564 7.0997e-06 51.7726 0.875175 55.6782C1.7516 59.585 3.48438 64.7648 6.83209 68.8434C10.1961 72.9057 15.1738 75.848 20.6668 77.2941C26.1598 78.7389 32.1668 78.6875 38.0886 78.3614C44.0104 78.0341 49.8808 77.4145 53.4179 76.726C56.9699 76.055 58.2238 75.315 59.0814 74.3857C59.9566 73.4563 60.4543 72.3376 60.438 70.9956C60.438 69.6523 59.9403 68.0695 59.0137 66.9859C58.1548 65.9349 56.7994 65.368 55.271 65.3329ZM21.5595 12.3271C27.1377 10.2113 33.6438 10.2276 39.1707 12.2581C44.6975 14.2899 49.2639 18.3509 49.6413 31.7394C36.6818 31.7394 23.7399 31.7394 10.7804 31.7394C11.3634 18.6946 15.9975 14.4441 21.5595 12.3271Z" fill="var(--fill-0, white)"/>
</svg>
