<svg preserveAspectRatio="none" width="100%" height="100%" overflow="visible" style="display: block;" viewBox="0 0 37.1671 78.4269" fill="none" xmlns="http://www.w3.org/2000/svg">
<path id="Vector" d="M10.7967 4.87294C19.1904 0.863169 24.5115 0.415676 27.807 0.174746C31.3087 -0.0833667 32.4759 -0.0833668 33.626 0.364003C34.776 0.811498 35.8917 1.70636 36.544 2.99717C37.2135 4.28786 37.4023 5.97437 36.8186 7.45444C36.235 8.93438 34.8446 10.1907 33.2312 10.6726C31.6176 11.1544 29.7982 10.8791 26.0391 11.3438C22.6404 11.774 17.6798 12.8066 10.8138 17.3844C10.8138 35.9192 10.8138 54.4711 10.8138 73.0059C10.8138 76.0004 8.3936 78.4269 5.40699 78.4269C2.42026 78.4269 0 76.0004 0 73.0059C0 50.4957 0 27.9683 0 5.45814C0 2.56686 2.24861 0.191928 5.13228 0.0370351C7.99889 -0.13504 10.4877 2.01615 10.7967 4.87294Z" fill="var(--fill-0, white)"/>
</svg>
