<svg preserveAspectRatio="none" width="100%" height="100%" overflow="visible" style="display: block;" viewBox="0 0 62.051 78.4655" fill="none" xmlns="http://www.w3.org/2000/svg">
<path id="Vector" d="M51.305 3.94762C53.1932 -2.85009 63.7667 -0.182676 61.8108 6.85609C56.1798 27.1979 50.5326 47.5224 44.903 67.8643C43.1689 74.1286 37.4703 78.4826 30.9818 78.4654C24.4945 78.4654 18.7959 74.1114 17.0618 67.8471C11.4485 47.5224 5.85265 27.1979 0.240544 6.85609C-1.71667 -0.182676 8.85682 -2.8674 10.7451 3.94762C16.3584 24.2895 21.953 44.6485 27.5664 64.9902C27.9952 66.5391 29.4032 67.6062 30.9993 67.6062C32.5954 67.6062 34.0035 66.5391 34.4323 64.9902C40.0457 44.6485 45.6753 24.2895 51.305 3.94762Z" fill="var(--fill-0, white)"/>
</svg>
